<svg width="478" height="338" viewBox="0 0 478 338" fill="none" xmlns="http://www.w3.org/2000/svg">
<path d="M122.339 193.465C122.364 193.389 122.389 193.289 122.414 193.163C122.439 193.037 122.502 192.761 122.603 192.333C122.703 191.906 122.829 191.516 122.98 191.164C123.131 190.812 123.319 190.397 123.546 189.919C123.772 189.441 124.024 189.064 124.3 188.787C124.577 188.511 124.904 188.234 125.281 187.958C125.658 187.681 126.073 187.568 126.526 187.618C128.412 187.618 129.619 188.423 130.147 190.032L130.524 189.693C132.083 188.31 133.567 187.618 134.975 187.618C136.61 187.618 137.892 188.209 138.823 189.391C139.753 190.573 140.219 192.006 140.219 193.691C140.219 196.407 139.263 198.909 137.352 201.198C135.441 203.486 133.278 204.643 130.864 204.668C130.31 204.668 129.82 204.593 129.393 204.442C129.116 204.316 128.827 204.127 128.525 203.876C128.223 203.624 127.984 203.411 127.808 203.235L127.544 202.933C127.519 202.958 127.242 204.052 126.714 206.215C126.186 208.377 125.922 209.471 125.922 209.496C125.922 209.647 126.023 209.735 126.224 209.76C126.425 209.786 126.89 209.823 127.62 209.874H128.563C128.714 210.05 128.789 210.163 128.789 210.213C128.789 210.263 128.751 210.49 128.676 210.892C128.6 211.194 128.525 211.382 128.45 211.458C128.374 211.533 128.211 211.584 127.959 211.609C127.909 211.609 127.771 211.609 127.544 211.609C127.318 211.609 126.89 211.596 126.262 211.571C125.633 211.546 124.853 211.533 123.923 211.533C122.163 211.533 121.044 211.558 120.566 211.609H120.264C120.088 211.433 120 211.294 120 211.194C120.05 210.515 120.214 210.075 120.49 209.874H121.245C122.1 209.848 122.59 209.697 122.716 209.421C122.791 209.27 123.558 206.265 125.017 200.406C126.475 194.546 127.242 191.44 127.318 191.088C127.343 190.963 127.356 190.787 127.356 190.56C127.356 189.529 127.041 189.014 126.413 189.014C125.859 189.014 125.394 189.366 125.017 190.07C124.64 190.774 124.351 191.541 124.149 192.371C123.948 193.201 123.797 193.653 123.697 193.729C123.646 193.779 123.445 193.804 123.093 193.804H122.565C122.414 193.653 122.339 193.54 122.339 193.465ZM128.185 200.443C128.739 202.354 129.669 203.31 130.977 203.31C131.731 203.31 132.461 203.021 133.165 202.442C133.869 201.864 134.447 201.135 134.9 200.255C135.352 199.4 135.805 198.042 136.258 196.181C136.71 194.32 136.949 192.937 136.975 192.031V191.805C136.975 189.944 136.208 189.014 134.674 189.014C134.397 189.014 134.12 189.051 133.844 189.127C133.567 189.202 133.29 189.316 133.014 189.466C132.737 189.617 132.486 189.781 132.259 189.957C132.033 190.133 131.819 190.321 131.618 190.523C131.417 190.724 131.228 190.912 131.052 191.088C130.876 191.264 130.738 191.44 130.637 191.617C130.537 191.793 130.436 191.918 130.336 191.994L130.222 192.145C130.222 192.17 130.185 192.346 130.109 192.673C130.034 193 129.896 193.553 129.694 194.332C129.493 195.112 129.317 195.766 129.166 196.294C128.512 198.96 128.185 200.343 128.185 200.443Z" fill="#41BC81"/>
<path d="M141.378 204.615C141.378 202.802 141.725 200.89 142.418 198.881C143.112 196.872 144.054 195.139 145.245 193.681C146.436 192.223 147.672 191.387 148.952 191.174C148.97 191.174 149.041 191.174 149.166 191.174C149.29 191.174 149.397 191.165 149.486 191.147C150.446 191.219 151.192 191.654 151.726 192.454C152.419 193.521 152.766 194.952 152.766 196.748C152.766 198.793 152.366 200.873 151.566 202.988C150.766 205.104 149.743 206.838 148.499 208.189C147.254 209.54 146.063 210.216 144.925 210.216H144.739C144.098 210.216 143.547 210.038 143.085 209.682C142.623 209.327 142.276 208.856 142.045 208.269C141.814 207.682 141.645 207.087 141.538 206.482C141.432 205.878 141.378 205.255 141.378 204.615ZM150.659 194.854C150.659 193.041 150.188 192.134 149.246 192.134C148.606 192.134 147.983 192.534 147.379 193.334C146.774 194.134 146.276 195.041 145.885 196.055C145.494 197.068 145.192 197.957 144.979 198.721C144.765 199.486 144.65 199.93 144.632 200.055C145.503 200.073 146.365 200.082 147.219 200.082L149.806 200.055C149.823 200.037 149.894 199.744 150.019 199.175C150.143 198.606 150.286 197.895 150.446 197.041C150.606 196.188 150.677 195.459 150.659 194.854ZM143.458 206.429C143.458 208.313 143.93 209.256 144.872 209.256C145.139 209.256 145.423 209.167 145.725 208.989C146.028 208.811 146.392 208.473 146.819 207.976C147.245 207.478 147.672 206.704 148.099 205.655C148.525 204.606 148.952 203.308 149.379 201.762L149.512 201.308H144.312C144.312 201.362 144.232 201.699 144.072 202.322C143.912 202.944 143.77 203.637 143.645 204.402C143.521 205.166 143.458 205.842 143.458 206.429Z" fill="#41BC81"/>
<path d="M158.385 194.861C158.385 193.125 158.511 191.478 158.762 189.919C159.014 188.36 159.303 187.015 159.63 185.883C159.957 184.751 160.422 183.645 161.025 182.563C161.629 181.482 162.107 180.64 162.459 180.036C162.811 179.433 163.339 178.779 164.043 178.075C164.747 177.371 165.162 176.943 165.288 176.792C165.414 176.641 165.728 176.377 166.231 176H166.721H166.872C167.224 176 167.4 176.113 167.4 176.339C167.4 176.415 167.187 176.679 166.759 177.132C166.332 177.584 165.816 178.251 165.213 179.131C164.609 180.011 163.993 181.092 163.364 182.375C162.736 183.657 162.207 185.393 161.78 187.58C161.352 189.768 161.139 192.195 161.139 194.861C161.139 197.526 161.352 199.94 161.78 202.103C162.207 204.266 162.723 206.013 163.326 207.346C163.93 208.679 164.546 209.76 165.175 210.59C165.803 211.42 166.332 212.087 166.759 212.589C167.187 213.092 167.4 213.356 167.4 213.382C167.4 213.608 167.212 213.721 166.835 213.721H166.721H166.231L165.175 212.816C162.811 210.678 161.088 208.013 160.007 204.819C158.926 201.625 158.385 198.306 158.385 194.861Z" fill="#41BC81"/>
<path d="M178.075 204.291C177.698 204.215 176.365 204.178 174.077 204.178C172.04 204.178 170.871 204.215 170.569 204.291H170.305V201.952H173.926L178.754 196.256L173.624 189.881H170.494V187.543H170.795C171.172 187.618 172.543 187.656 174.907 187.656C177.522 187.656 179.056 187.618 179.509 187.543H179.848V189.881H178.792L180.112 191.503C180.967 192.56 181.407 193.088 181.433 193.088C181.533 193.088 182.011 192.534 182.866 191.428L184.186 189.881H182.791V187.543H183.092C183.47 187.618 184.802 187.656 187.091 187.656C189.128 187.656 190.297 187.618 190.599 187.543H190.863V189.881H187.279L182.904 195.011L188.524 201.914L190.071 201.952H191.617V204.291H191.316C190.938 204.215 189.568 204.178 187.204 204.178C184.589 204.178 183.055 204.215 182.602 204.291H182.262V201.952H183.319C183.319 201.927 182.816 201.298 181.81 200.066C180.804 198.834 180.288 198.193 180.263 198.142L176.982 201.914L177.698 201.952H178.377V204.291H178.075Z" fill="#41BC81"/>
<path d="M193.103 199.682C192.978 199.557 192.916 199.468 192.916 199.415C192.916 199.344 192.943 199.201 192.996 198.988C193.05 198.775 193.094 198.65 193.13 198.615C193.165 198.526 193.245 198.481 193.37 198.481C193.494 198.481 193.947 198.473 194.73 198.455H196.143L196.65 196.321C196.703 196.126 196.765 195.868 196.837 195.548C196.908 195.228 196.97 194.997 197.023 194.854C197.077 194.712 197.13 194.534 197.183 194.321C197.237 194.108 197.308 193.957 197.397 193.868C197.485 193.779 197.574 193.672 197.663 193.548C197.752 193.423 197.877 193.343 198.037 193.308C198.197 193.272 198.357 193.254 198.517 193.254C198.837 193.272 199.059 193.37 199.183 193.548C199.308 193.725 199.37 193.894 199.37 194.054C199.37 194.179 199.29 194.597 199.13 195.308C198.97 196.019 198.792 196.721 198.597 197.415L198.33 198.401C198.33 198.437 198.774 198.455 199.663 198.455H201.024C201.148 198.579 201.21 198.677 201.21 198.748C201.21 199.139 201.095 199.45 200.863 199.682H198.01L197.05 203.548C196.356 206.393 196.01 207.922 196.01 208.136C196.01 208.882 196.25 209.256 196.73 209.256C197.352 209.256 197.957 208.953 198.543 208.349C199.13 207.744 199.601 206.998 199.957 206.109C199.992 206.002 200.037 205.94 200.09 205.922C200.143 205.904 200.277 205.886 200.49 205.869H200.597C200.863 205.869 200.997 205.94 200.997 206.082C200.997 206.135 200.97 206.242 200.917 206.402C200.828 206.687 200.668 207.024 200.437 207.415C200.206 207.807 199.903 208.224 199.53 208.669C199.157 209.113 198.703 209.487 198.17 209.789C197.637 210.091 197.094 210.242 196.543 210.242C196.01 210.242 195.503 210.109 195.023 209.842C194.543 209.576 194.196 209.113 193.983 208.456C193.947 208.313 193.93 208.073 193.93 207.735V207.255L194.863 203.522C195.485 201.015 195.805 199.753 195.823 199.735C195.823 199.699 195.37 199.682 194.463 199.682H193.103Z" fill="#41BC81"/>
<path d="M204.277 203.628C204.277 203.628 204.277 203.513 204.277 203.282C204.277 203.051 204.402 202.873 204.65 202.748H220.145C220.412 202.891 220.545 203.068 220.545 203.282C220.545 203.495 220.412 203.673 220.145 203.815H204.65C204.402 203.691 204.277 203.513 204.277 203.282V203.628Z" fill="#41BC81"/>
<path d="M228.466 194.534L228.119 194.668C227.87 194.757 227.515 194.846 227.052 194.934C226.59 195.023 226.074 195.086 225.506 195.121H224.999V193.894H225.506C226.341 193.859 227.115 193.725 227.826 193.494C228.537 193.263 229.035 193.05 229.319 192.854C229.604 192.659 229.853 192.463 230.066 192.268C230.101 192.214 230.208 192.188 230.386 192.188C230.546 192.188 230.697 192.241 230.839 192.348V200.322L230.866 208.322C230.99 208.447 231.097 208.527 231.186 208.562C231.275 208.598 231.488 208.633 231.826 208.669C232.164 208.704 232.715 208.722 233.48 208.722H234.173V209.949H233.88C233.506 209.896 232.093 209.869 229.639 209.869C227.221 209.869 225.826 209.896 225.452 209.949H225.132V208.722H225.826C226.217 208.722 226.554 208.722 226.839 208.722C227.123 208.722 227.346 208.713 227.506 208.696C227.666 208.678 227.808 208.651 227.932 208.616C228.057 208.58 228.128 208.562 228.146 208.562C228.164 208.562 228.217 208.518 228.306 208.429C228.395 208.34 228.448 208.304 228.466 208.322V194.534Z" fill="#41BC81"/>
<path d="M243.258 213.683H243.182C242.88 213.683 242.654 213.507 242.503 213.155V194.823L242.541 176.49C242.792 176.163 243.031 176 243.258 176C243.584 176 243.836 176.189 244.012 176.566V213.155C243.811 213.507 243.584 213.683 243.333 213.683H243.258Z" fill="#41BC81"/>
<path d="M257.064 204.291C256.686 204.215 255.353 204.178 253.065 204.178C251.028 204.178 249.859 204.215 249.557 204.291H249.293V201.952H252.914L257.743 196.256L252.612 189.881H249.482V187.543H249.783C250.161 187.618 251.531 187.656 253.895 187.656C256.51 187.656 258.044 187.618 258.497 187.543H258.836V189.881H257.78L259.1 191.503C259.955 192.56 260.396 193.088 260.421 193.088C260.521 193.088 260.999 192.534 261.854 191.428L263.174 189.881H261.779V187.543H262.08C262.458 187.618 263.79 187.656 266.079 187.656C268.116 187.656 269.285 187.618 269.587 187.543H269.851V189.881H266.267L261.892 195.011L267.512 201.914L269.059 201.952H270.605V204.291H270.304C269.926 204.215 268.556 204.178 266.192 204.178C263.577 204.178 262.043 204.215 261.59 204.291H261.251V201.952H262.307C262.307 201.927 261.804 201.298 260.798 200.066C259.792 198.834 259.276 198.193 259.251 198.142L255.97 201.914L256.686 201.952H257.365V204.291H257.064Z" fill="#41BC81"/>
<path d="M272.091 199.682C271.966 199.557 271.904 199.468 271.904 199.415C271.904 199.344 271.931 199.201 271.984 198.988C272.038 198.775 272.082 198.65 272.118 198.615C272.153 198.526 272.233 198.481 272.358 198.481C272.482 198.481 272.935 198.473 273.718 198.455H275.131L275.638 196.321C275.691 196.126 275.753 195.868 275.825 195.548C275.896 195.228 275.958 194.997 276.011 194.854C276.065 194.712 276.118 194.534 276.171 194.321C276.225 194.108 276.296 193.957 276.385 193.868C276.473 193.779 276.562 193.672 276.651 193.548C276.74 193.423 276.865 193.343 277.025 193.308C277.185 193.272 277.345 193.254 277.505 193.254C277.825 193.272 278.047 193.37 278.171 193.548C278.296 193.725 278.358 193.894 278.358 194.054C278.358 194.179 278.278 194.597 278.118 195.308C277.958 196.019 277.78 196.721 277.585 197.415L277.318 198.401C277.318 198.437 277.762 198.455 278.651 198.455H280.012C280.136 198.579 280.198 198.677 280.198 198.748C280.198 199.139 280.083 199.45 279.852 199.682H276.998L276.038 203.548C275.345 206.393 274.998 207.922 274.998 208.136C274.998 208.882 275.238 209.256 275.718 209.256C276.34 209.256 276.945 208.953 277.531 208.349C278.118 207.744 278.589 206.998 278.945 206.109C278.98 206.002 279.025 205.94 279.078 205.922C279.131 205.904 279.265 205.886 279.478 205.869H279.585C279.852 205.869 279.985 205.94 279.985 206.082C279.985 206.135 279.958 206.242 279.905 206.402C279.816 206.687 279.656 207.024 279.425 207.415C279.194 207.807 278.891 208.224 278.518 208.669C278.145 209.113 277.691 209.487 277.158 209.789C276.625 210.091 276.082 210.242 275.531 210.242C274.998 210.242 274.491 210.109 274.011 209.842C273.531 209.576 273.184 209.113 272.971 208.456C272.935 208.313 272.918 208.073 272.918 207.735V207.255L273.851 203.522C274.473 201.015 274.793 199.753 274.811 199.735C274.811 199.699 274.358 199.682 273.451 199.682H272.091Z" fill="#41BC81"/>
<path d="M285.173 176.038L285.324 176C285.45 176 285.576 176 285.701 176H286.154L287.21 176.905C289.574 179.043 291.297 181.708 292.378 184.902C293.459 188.096 294 191.415 294 194.861C294 196.571 293.874 198.218 293.623 199.802C293.371 201.386 293.082 202.732 292.755 203.838C292.428 204.945 291.963 206.051 291.36 207.158C290.756 208.264 290.278 209.107 289.926 209.685C289.574 210.263 289.059 210.905 288.38 211.609C287.701 212.313 287.298 212.728 287.173 212.854C287.047 212.979 286.758 213.218 286.305 213.57C286.229 213.646 286.179 213.696 286.154 213.721H285.701C285.5 213.721 285.362 213.721 285.286 213.721C285.211 213.721 285.148 213.683 285.098 213.608C285.048 213.532 285.01 213.419 284.985 213.268C285.01 213.243 285.148 213.08 285.4 212.778C289.297 208.729 291.246 202.757 291.246 194.861C291.246 186.964 289.297 180.992 285.4 176.943C285.148 176.641 285.01 176.478 284.985 176.453C284.985 176.251 285.048 176.113 285.173 176.038Z" fill="#41BC81"/>
<path d="M278 89.5233C278 87.3235 278.828 85.2325 280.483 83.2504C282.138 81.2684 284.001 80.2665 286.07 80.2447C287.377 80.2447 288.379 80.811 289.076 81.9436C289.097 81.9218 289.152 81.8565 289.239 81.7476C289.326 81.6387 289.446 81.5189 289.598 81.3882C289.751 81.2575 289.925 81.1268 290.121 80.9961C290.862 80.4734 291.363 80.212 291.624 80.212C291.711 80.212 291.787 80.2447 291.853 80.31C291.918 80.3754 291.951 80.4298 291.951 80.4734C291.951 80.6694 291.199 83.7732 289.696 89.7847C288.15 95.9704 287.377 99.1069 287.377 99.194C287.377 99.3682 287.867 99.4662 288.847 99.488H289.664C289.794 99.6623 289.86 99.7603 289.86 99.7821C289.86 99.8039 289.827 99.9999 289.762 100.37C289.675 100.653 289.566 100.86 289.435 100.991H289.01C288.335 100.947 287.159 100.926 285.482 100.926C284.872 100.926 284.316 100.926 283.815 100.926C283.315 100.926 282.912 100.926 282.607 100.926C282.302 100.926 282.117 100.936 282.051 100.958C281.746 100.958 281.594 100.871 281.594 100.697C281.594 100.632 281.616 100.468 281.659 100.207C281.746 99.8583 281.823 99.6514 281.888 99.586C281.953 99.5207 282.171 99.488 282.541 99.488C283.587 99.488 284.218 99.4118 284.436 99.2593C284.61 99.1504 284.915 98.1921 285.351 96.3843C285.787 94.5765 286.015 93.6508 286.037 93.6072C286.037 93.5854 285.961 93.6181 285.808 93.7052C284.763 94.5547 283.674 94.9794 282.541 94.9794C281.343 94.9794 280.287 94.5438 279.372 93.6726C278.457 92.8013 278 91.4182 278 89.5233ZM288.422 84.0019C287.921 82.2812 287.104 81.4209 285.972 81.4209C285.209 81.4209 284.48 81.7585 283.783 82.4337C283.086 83.1089 282.541 83.991 282.149 85.08C281.518 86.8007 281.071 88.5867 280.81 90.4381C280.81 90.5035 280.81 90.6232 280.81 90.7975C280.81 90.9717 280.799 91.1024 280.777 91.1895C280.777 92.1697 280.973 92.8449 281.365 93.2152C281.757 93.5854 282.225 93.7815 282.77 93.8032C283.946 93.8032 285.155 93.0191 286.396 91.4509L286.658 91.0915L288.422 84.0019Z" fill="#DD5454"/>
<path d="M295.022 86.4849C295.022 84.982 295.131 83.5554 295.348 82.205C295.566 80.8546 295.817 79.6893 296.1 78.7092C296.383 77.729 296.786 76.7707 297.309 75.8341C297.831 74.8975 298.245 74.1679 298.55 73.6451C298.855 73.1224 299.313 72.5561 299.922 71.9462C300.532 71.3364 300.892 70.9661 301.001 70.8354C301.109 70.7047 301.382 70.476 301.817 70.1493H302.242H302.373C302.678 70.1493 302.83 70.2473 302.83 70.4433C302.83 70.5087 302.645 70.7374 302.275 71.1294C301.904 71.5215 301.458 72.0987 300.935 72.861C300.412 73.6233 299.879 74.5599 299.334 75.6707C298.79 76.7816 298.332 78.2844 297.962 80.1794C297.592 82.0743 297.407 84.1761 297.407 86.4849C297.407 88.7937 297.592 90.8846 297.962 92.7578C298.332 94.6309 298.779 96.1447 299.302 97.2991C299.824 98.4534 300.358 99.39 300.903 100.109C301.447 100.828 301.904 101.405 302.275 101.84C302.645 102.276 302.83 102.505 302.83 102.526C302.83 102.722 302.667 102.82 302.34 102.82H302.242H301.817L300.903 102.036C298.855 100.185 297.363 97.8763 296.427 95.1101C295.49 92.3439 295.022 89.4689 295.022 86.4849Z" fill="#DD5454"/>
<path d="M312.076 94.6527C311.749 94.5874 310.595 94.5547 308.613 94.5547C306.849 94.5547 305.836 94.5874 305.574 94.6527H305.346V92.6271H308.482L312.664 87.6937L308.221 82.1723H305.509V80.1467H305.771C306.097 80.212 307.284 80.2447 309.332 80.2447C311.597 80.2447 312.926 80.212 313.318 80.1467H313.612V82.1723H312.697L313.84 83.5772C314.581 84.492 314.962 84.9494 314.984 84.9494C315.071 84.9494 315.485 84.4702 316.225 83.5118L317.369 82.1723H316.16V80.1467H316.421C316.748 80.212 317.902 80.2447 319.884 80.2447C321.649 80.2447 322.662 80.212 322.923 80.1467H323.152V82.1723H320.048L316.258 86.6156L321.126 92.5944L322.466 92.6271H323.805V94.6527H323.544C323.217 94.5874 322.03 94.5547 319.982 94.5547C317.717 94.5547 316.389 94.5874 315.997 94.6527H315.703V92.6271H316.617C316.617 92.6053 316.182 92.0608 315.311 90.9935C314.439 89.9263 313.993 89.3709 313.971 89.3273L311.129 92.5944L311.749 92.6271H312.337V94.6527H312.076Z" fill="#DD5454"/>
<path d="M325.092 90.6604C324.984 90.5527 324.93 90.4757 324.93 90.4295C324.93 90.3679 324.953 90.2447 324.999 90.0599C325.045 89.8751 325.084 89.7673 325.115 89.7365C325.146 89.6595 325.215 89.621 325.323 89.621C325.43 89.621 325.823 89.6133 326.501 89.5979H327.725L328.164 87.75C328.21 87.5806 328.264 87.3574 328.325 87.0802C328.387 86.803 328.441 86.6028 328.487 86.4796C328.533 86.3564 328.58 86.2024 328.626 86.0176C328.672 85.8328 328.734 85.702 328.811 85.625C328.888 85.548 328.965 85.4556 329.042 85.3478C329.119 85.24 329.226 85.1707 329.365 85.1399C329.504 85.1091 329.642 85.0937 329.781 85.0937C330.058 85.1091 330.25 85.1938 330.358 85.3478C330.466 85.5018 330.52 85.6481 330.52 85.7867C330.52 85.8944 330.451 86.2563 330.312 86.8723C330.173 87.4882 330.019 88.0965 329.85 88.6971L329.619 89.5517C329.619 89.5825 330.004 89.5979 330.774 89.5979H331.952C332.06 89.7057 332.114 89.7904 332.114 89.852C332.114 90.1908 332.014 90.4603 331.813 90.6604H329.342L328.51 94.0097C327.91 96.4736 327.609 97.7979 327.609 97.9827C327.609 98.6294 327.817 98.9528 328.233 98.9528C328.772 98.9528 329.296 98.691 329.804 98.1675C330.312 97.6439 330.72 96.9971 331.028 96.2272C331.059 96.1348 331.097 96.0809 331.143 96.0655C331.19 96.0501 331.305 96.0347 331.49 96.0193H331.582C331.813 96.0193 331.929 96.0809 331.929 96.2041C331.929 96.2503 331.906 96.3427 331.86 96.4813C331.783 96.7277 331.644 97.0202 331.444 97.359C331.244 97.6978 330.982 98.0597 330.658 98.4447C330.335 98.8296 329.942 99.153 329.48 99.4148C329.018 99.6766 328.549 99.8075 328.071 99.8075C327.609 99.8075 327.171 99.692 326.755 99.461C326.339 99.23 326.039 98.8296 325.854 98.2599C325.823 98.1367 325.808 97.9288 325.808 97.6362V97.2204L326.616 93.9866C327.155 91.8154 327.432 90.722 327.448 90.7066C327.448 90.6758 327.055 90.6604 326.27 90.6604H325.092Z" fill="#DD5454"/>
<path d="M334.77 94.079C334.77 94.079 334.77 93.9789 334.77 93.7788C334.77 93.5786 334.878 93.4246 335.093 93.3168H348.514C348.745 93.44 348.86 93.594 348.86 93.7788C348.86 93.9635 348.745 94.1175 348.514 94.2407H335.093C334.878 94.1329 334.77 93.9789 334.77 93.7788V94.079Z" fill="#DD5454"/>
<path d="M355.72 86.2024L355.42 86.3179C355.204 86.3949 354.896 86.4719 354.496 86.5489C354.096 86.6259 353.649 86.6798 353.156 86.7106H352.718V85.6481H353.156C353.88 85.6173 354.55 85.5018 355.166 85.3016C355.782 85.1014 356.213 84.9166 356.459 84.7472C356.706 84.5778 356.921 84.4084 357.106 84.239C357.137 84.1928 357.229 84.1697 357.383 84.1697C357.522 84.1697 357.653 84.2159 357.776 84.3083V91.2148L357.799 98.1444C357.907 98.2522 357.999 98.3215 358.076 98.3523C358.153 98.383 358.338 98.4138 358.631 98.4446C358.923 98.4754 359.401 98.4908 360.063 98.4908H360.663V99.5534H360.409C360.086 99.5072 358.862 99.4841 356.737 99.4841C354.642 99.4841 353.434 99.5072 353.11 99.5534H352.833V98.4908H353.434C353.772 98.4908 354.065 98.4908 354.311 98.4908C354.558 98.4908 354.75 98.4831 354.889 98.4677C355.027 98.4523 355.151 98.4292 355.258 98.3984C355.366 98.3677 355.428 98.3523 355.443 98.3523C355.459 98.3523 355.505 98.3138 355.582 98.2368C355.659 98.1598 355.705 98.129 355.72 98.1444V86.2024Z" fill="#DD5454"/>
<path d="M368.529 102.788H368.463C368.202 102.788 368.006 102.635 367.875 102.33V86.4522L367.908 70.574C368.126 70.2909 368.333 70.1493 368.529 70.1493C368.812 70.1493 369.03 70.3127 369.182 70.6394V102.33C369.008 102.635 368.812 102.788 368.594 102.788H368.529Z" fill="#DD5454"/>
<path d="M380.486 94.6527C380.16 94.5874 379.005 94.5547 377.023 94.5547C375.259 94.5547 374.246 94.5874 373.985 94.6527H373.756V92.6271H376.892L381.074 87.6937L376.631 82.1723H373.919V80.1467H374.181C374.507 80.212 375.695 80.2447 377.742 80.2447C380.007 80.2447 381.336 80.212 381.728 80.1467H382.022V82.1723H381.107L382.251 83.5772C382.991 84.492 383.372 84.9494 383.394 84.9494C383.481 84.9494 383.895 84.4702 384.636 83.5118L385.779 82.1723H384.57V80.1467H384.832C385.158 80.212 386.313 80.2447 388.295 80.2447C390.059 80.2447 391.072 80.212 391.333 80.1467H391.562V82.1723H388.458L384.668 86.6156L389.536 92.5944L390.876 92.6271H392.215V94.6527H391.954C391.627 94.5874 390.44 94.5547 388.393 94.5547C386.128 94.5547 384.799 94.5874 384.407 94.6527H384.113V92.6271H385.028C385.028 92.6053 384.592 92.0608 383.721 90.9935C382.849 89.9263 382.403 89.3709 382.381 89.3273L379.539 92.5944L380.16 92.6271H380.748V94.6527H380.486Z" fill="#DD5454"/>
<path d="M393.502 90.6604C393.394 90.5527 393.34 90.4757 393.34 90.4295C393.34 90.3679 393.363 90.2447 393.41 90.0599C393.456 89.8751 393.494 89.7673 393.525 89.7365C393.556 89.6595 393.625 89.621 393.733 89.621C393.841 89.621 394.233 89.6133 394.911 89.5979H396.135L396.574 87.75C396.62 87.5806 396.674 87.3574 396.736 87.0802C396.797 86.803 396.851 86.6028 396.897 86.4796C396.944 86.3564 396.99 86.2024 397.036 86.0176C397.082 85.8328 397.144 85.702 397.221 85.625C397.298 85.548 397.375 85.4556 397.452 85.3478C397.529 85.24 397.637 85.1707 397.775 85.1399C397.914 85.1091 398.052 85.0937 398.191 85.0937C398.468 85.1091 398.661 85.1938 398.768 85.3478C398.876 85.5018 398.93 85.6481 398.93 85.7867C398.93 85.8944 398.861 86.2563 398.722 86.8723C398.584 87.4882 398.43 88.0965 398.26 88.6971L398.029 89.5517C398.029 89.5825 398.414 89.5979 399.184 89.5979H400.362C400.47 89.7057 400.524 89.7904 400.524 89.852C400.524 90.1908 400.424 90.4603 400.224 90.6604H397.752L396.92 94.0097C396.32 96.4736 396.02 97.7979 396.02 97.9827C396.02 98.6294 396.228 98.9528 396.643 98.9528C397.182 98.9528 397.706 98.691 398.214 98.1675C398.722 97.6439 399.13 96.9971 399.438 96.2272C399.469 96.1348 399.508 96.0809 399.554 96.0655C399.6 96.0501 399.715 96.0347 399.9 96.0193H399.993C400.224 96.0193 400.339 96.0809 400.339 96.2041C400.339 96.2503 400.316 96.3427 400.27 96.4813C400.193 96.7277 400.054 97.0202 399.854 97.359C399.654 97.6978 399.392 98.0597 399.069 98.4447C398.745 98.8296 398.353 99.153 397.891 99.4148C397.429 99.6766 396.959 99.8075 396.482 99.8075C396.02 99.8075 395.581 99.692 395.165 99.461C394.749 99.23 394.449 98.8296 394.264 98.2599C394.233 98.1367 394.218 97.9288 394.218 97.6362V97.2204L395.026 93.9866C395.565 91.8154 395.843 90.722 395.858 90.7066C395.858 90.6758 395.465 90.6604 394.68 90.6604H393.502Z" fill="#DD5454"/>
<path d="M405.424 93.5092C405.424 93.5092 405.424 93.237 405.424 92.6924C405.424 92.1479 405.598 91.6796 405.947 91.2876C406.295 90.8955 406.764 90.6995 407.352 90.6995C407.962 90.6995 408.506 90.9718 408.985 91.5163C409.465 92.0608 409.715 93.0192 409.737 94.3913C409.737 95.1537 409.639 95.8942 409.443 96.613C409.247 97.3318 409.018 97.9525 408.757 98.4752C408.495 98.998 408.212 99.4445 407.907 99.8148C407.602 100.185 407.341 100.479 407.123 100.697C406.905 100.915 406.764 101.013 406.698 100.991C406.611 100.991 406.47 100.893 406.274 100.697C406.078 100.501 405.98 100.359 405.98 100.272C405.98 100.185 406.099 100.011 406.339 99.7494C406.579 99.4881 406.851 99.1613 407.156 98.7693C407.461 98.3772 407.744 97.8327 408.005 97.1357C408.267 96.4387 408.441 95.6437 408.528 94.7507V94.3587L408.495 94.3913C408.452 94.4131 408.397 94.4349 408.332 94.4567C408.267 94.4785 408.201 94.5111 408.136 94.5547C408.071 94.5983 407.973 94.62 407.842 94.62C407.711 94.62 407.58 94.6309 407.45 94.6527C406.862 94.6527 406.383 94.4676 406.012 94.0973L405.424 93.5092Z" fill="#DD5454"/>
<path d="M424.821 94.6527C424.494 94.5874 423.34 94.5547 421.358 94.5547C419.594 94.5547 418.581 94.5874 418.32 94.6527H418.091V92.6271H421.227L425.409 87.6937L420.966 82.1723H418.254V80.1467H418.516C418.842 80.212 420.029 80.2447 422.077 80.2447C424.342 80.2447 425.671 80.212 426.063 80.1467H426.357V82.1723H425.442L426.585 83.5772C427.326 84.492 427.707 84.9494 427.729 84.9494C427.816 84.9494 428.23 84.4702 428.97 83.5118L430.114 82.1723H428.905V80.1467H429.166C429.493 80.212 430.647 80.2447 432.63 80.2447C434.394 80.2447 435.407 80.212 435.668 80.1467H435.897V82.1723H432.793L429.003 86.6156L433.871 92.5944L435.211 92.6271H436.55V94.6527H436.289C435.962 94.5874 434.775 94.5547 432.728 94.5547C430.462 94.5547 429.134 94.5874 428.742 94.6527H428.448V92.6271H429.362C429.362 92.6053 428.927 92.0608 428.056 90.9935C427.184 89.9263 426.738 89.3709 426.716 89.3273L423.874 92.5944L424.494 92.6271H425.082V94.6527H424.821Z" fill="#DD5454"/>
<path d="M439.407 71.5493C439.407 70.4867 439.484 69.4781 439.638 68.5234C439.792 67.5686 439.969 66.7448 440.17 66.0518C440.37 65.3589 440.655 64.6813 441.024 64.0191C441.394 63.357 441.686 62.8411 441.902 62.4715C442.118 62.102 442.441 61.7016 442.872 61.2704C443.303 60.8393 443.557 60.5775 443.634 60.4851C443.711 60.3927 443.904 60.231 444.212 60H444.512H444.605C444.82 60 444.928 60.0693 444.928 60.2079C444.928 60.2541 444.797 60.4158 444.535 60.693C444.274 60.9701 443.958 61.3782 443.588 61.9172C443.219 62.4561 442.841 63.1183 442.456 63.9037C442.071 64.689 441.748 65.7515 441.486 67.0913C441.224 68.431 441.094 69.917 441.094 71.5493C441.094 73.1816 441.224 74.6599 441.486 75.9842C441.748 77.3085 442.064 78.3787 442.433 79.1949C442.803 80.011 443.18 80.6732 443.565 81.1814C443.95 81.6895 444.274 82.0976 444.535 82.4056C444.797 82.7136 444.928 82.8753 444.928 82.8907C444.928 83.0292 444.812 83.0985 444.581 83.0985H444.512H444.212L443.565 82.5442C442.118 81.2353 441.063 79.603 440.401 77.6473C439.738 75.6916 439.407 73.6589 439.407 71.5493Z" fill="#DD5454"/>
<path d="M451.141 63.9729L450.841 64.0884C450.626 64.1654 450.318 64.2424 449.917 64.3194C449.517 64.3964 449.07 64.4503 448.578 64.4811H448.139V63.4186H448.578C449.301 63.3878 449.971 63.2723 450.587 63.0721C451.203 62.8719 451.634 62.6871 451.881 62.5177C452.127 62.3483 452.343 62.179 452.527 62.0096C452.558 61.9634 452.651 61.9403 452.805 61.9403C452.943 61.9403 453.074 61.9865 453.197 62.0789V68.9853L453.22 75.9149C453.328 76.0227 453.421 76.092 453.498 76.1228C453.575 76.1536 453.759 76.1844 454.052 76.2152C454.344 76.246 454.822 76.2614 455.484 76.2614H456.085V77.3239H455.83C455.507 77.2777 454.283 77.2546 452.158 77.2546C450.064 77.2546 448.855 77.2777 448.531 77.3239H448.254V76.2614H448.855C449.194 76.2614 449.486 76.2614 449.732 76.2614C449.979 76.2614 450.171 76.2537 450.31 76.2383C450.449 76.2229 450.572 76.1998 450.68 76.169C450.787 76.1382 450.849 76.1228 450.864 76.1228C450.88 76.1228 450.926 76.0843 451.003 76.0073C451.08 75.9303 451.126 75.8995 451.141 75.9149V63.9729Z" fill="#DD5454"/>
<path d="M459.157 60.0231L459.249 60C459.326 60 459.403 60 459.48 60H459.757L460.404 60.5544C461.851 61.8633 462.906 63.4956 463.568 65.4513C464.231 67.4069 464.562 69.4396 464.562 71.5493C464.562 72.5964 464.485 73.605 464.331 74.5752C464.177 75.5453 464 76.3692 463.799 77.0467C463.599 77.7243 463.314 78.4018 462.945 79.0794C462.575 79.757 462.283 80.2728 462.067 80.627C461.851 80.9812 461.536 81.3739 461.12 81.805C460.704 82.2362 460.458 82.4903 460.381 82.5673C460.304 82.6443 460.127 82.7906 459.85 83.0061C459.803 83.0523 459.773 83.0831 459.757 83.0985H459.48C459.357 83.0985 459.272 83.0985 459.226 83.0985C459.18 83.0985 459.141 83.0754 459.11 83.0292C459.08 82.983 459.057 82.9138 459.041 82.8214C459.057 82.806 459.141 82.7059 459.295 82.5211C461.682 80.0418 462.876 76.3846 462.876 71.5493C462.876 66.714 461.682 63.0567 459.295 60.5775C459.141 60.3927 459.057 60.2926 459.041 60.2772C459.041 60.154 459.08 60.0693 459.157 60.0231Z" fill="#DD5454"/>
<path d="M439.454 90.8532C440.316 89.6059 441.494 88.9822 442.988 88.9822C443.727 88.9822 444.466 89.1824 445.205 89.5828C445.944 89.9832 446.545 90.6915 447.007 91.7079C447.577 92.986 447.861 94.7415 447.861 96.9743C447.861 99.3612 447.53 101.186 446.868 102.449C446.56 103.095 446.137 103.611 445.598 103.996C445.059 104.381 444.589 104.62 444.189 104.712C443.788 104.805 443.396 104.859 443.011 104.874C442.61 104.874 442.21 104.828 441.81 104.735C441.409 104.643 440.94 104.397 440.401 103.996C439.862 103.596 439.438 103.08 439.13 102.449C438.468 101.186 438.137 99.3612 438.137 96.9743C438.137 94.2949 438.576 92.2545 439.454 90.8532ZM444.651 90.576C444.189 90.0833 443.642 89.8369 443.011 89.8369C442.364 89.8369 441.81 90.0833 441.348 90.576C440.963 90.9764 440.709 91.5308 440.585 92.2391C440.462 92.9475 440.401 94.4258 440.401 96.674C440.401 99.1071 440.462 100.709 440.585 101.479C440.709 102.248 440.986 102.857 441.417 103.303C441.848 103.765 442.379 103.996 443.011 103.996C443.627 103.996 444.15 103.765 444.581 103.303C445.028 102.841 445.305 102.195 445.413 101.363C445.521 100.531 445.582 98.9685 445.598 96.674C445.598 94.4412 445.536 92.9706 445.413 92.2622C445.29 91.5539 445.036 90.9918 444.651 90.576Z" fill="#DD5454"/>
<path d="M470.355 70.182L470.486 70.1493C470.595 70.1493 470.703 70.1493 470.812 70.1493H471.204L472.119 70.9334C474.167 72.7848 475.659 75.0935 476.595 77.8597C477.532 80.6259 478 83.5009 478 86.4849C478 87.966 477.891 89.3926 477.673 90.7648C477.455 92.137 477.205 93.3023 476.922 94.2606C476.639 95.219 476.236 96.1774 475.713 97.1357C475.19 98.0941 474.776 98.8237 474.472 99.3247C474.167 99.8256 473.72 100.381 473.132 100.991C472.544 101.601 472.195 101.96 472.087 102.069C471.978 102.178 471.727 102.385 471.335 102.69C471.27 102.755 471.226 102.799 471.204 102.82H470.812C470.638 102.82 470.518 102.82 470.453 102.82C470.388 102.82 470.333 102.788 470.29 102.722C470.246 102.657 470.213 102.559 470.192 102.428C470.213 102.407 470.333 102.265 470.551 102.004C473.927 98.497 475.615 93.3241 475.615 86.4849C475.615 79.6457 473.927 74.4728 470.551 70.9661C470.333 70.7047 470.213 70.5631 470.192 70.5414C470.192 70.3671 470.246 70.2473 470.355 70.182Z" fill="#DD5454"/>
<path d="M457.73 252.506C457.404 252.441 456.249 252.408 454.267 252.408C452.503 252.408 451.49 252.441 451.229 252.506H451V250.48H454.136L458.318 245.547L453.875 240.026H451.163V238H451.425C451.751 238.065 452.938 238.098 454.986 238.098C457.251 238.098 458.58 238.065 458.972 238H459.266V240.026H458.351L459.495 241.43C460.235 242.345 460.616 242.803 460.638 242.803C460.725 242.803 461.139 242.323 461.88 241.365L463.023 240.026H461.814V238H462.076C462.402 238.065 463.557 238.098 465.539 238.098C467.303 238.098 468.316 238.065 468.577 238H468.806V240.026H465.702L461.912 244.469L466.78 250.448L468.12 250.48H469.459V252.506H469.198C468.871 252.441 467.684 252.408 465.637 252.408C463.371 252.408 462.043 252.441 461.651 252.506H461.357V250.48H462.272C462.272 250.459 461.836 249.914 460.965 248.847C460.093 247.78 459.647 247.224 459.625 247.181L456.783 250.448L457.404 250.48H457.992V252.506H457.73Z" fill="black"/>
<path d="M470.746 248.514C470.638 248.406 470.584 248.329 470.584 248.283C470.584 248.221 470.607 248.098 470.653 247.913C470.7 247.728 470.738 247.621 470.769 247.59C470.8 247.513 470.869 247.474 470.977 247.474C471.085 247.474 471.477 247.467 472.155 247.451H473.379L473.818 245.603C473.864 245.434 473.918 245.211 473.98 244.933C474.041 244.656 474.095 244.456 474.141 244.333C474.188 244.21 474.234 244.056 474.28 243.871C474.326 243.686 474.388 243.555 474.465 243.478C474.542 243.401 474.619 243.309 474.696 243.201C474.773 243.093 474.881 243.024 475.019 242.993C475.158 242.962 475.296 242.947 475.435 242.947C475.712 242.962 475.905 243.047 476.012 243.201C476.12 243.355 476.174 243.501 476.174 243.64C476.174 243.748 476.105 244.11 475.966 244.726C475.828 245.342 475.674 245.95 475.504 246.55L475.273 247.405C475.273 247.436 475.658 247.451 476.428 247.451H477.606C477.714 247.559 477.768 247.644 477.768 247.705C477.768 248.044 477.668 248.314 477.468 248.514H474.996L474.164 251.863C473.564 254.327 473.264 255.651 473.264 255.836C473.264 256.483 473.472 256.806 473.887 256.806C474.426 256.806 474.95 256.544 475.458 256.021C475.966 255.497 476.374 254.85 476.682 254.08C476.713 253.988 476.752 253.934 476.798 253.919C476.844 253.903 476.959 253.888 477.144 253.873H477.237C477.468 253.873 477.583 253.934 477.583 254.057C477.583 254.104 477.56 254.196 477.514 254.335C477.437 254.581 477.298 254.874 477.098 255.212C476.898 255.551 476.636 255.913 476.313 256.298C475.989 256.683 475.597 257.006 475.135 257.268C474.673 257.53 474.203 257.661 473.726 257.661C473.264 257.661 472.825 257.545 472.409 257.314C471.993 257.083 471.693 256.683 471.508 256.113C471.477 255.99 471.462 255.782 471.462 255.49V255.074L472.27 251.84C472.809 249.669 473.087 248.575 473.102 248.56C473.102 248.529 472.709 248.514 471.924 248.514H470.746Z" fill="black"/>
<path d="M64.7303 49.6527C64.4036 49.5874 63.2492 49.5547 61.2671 49.5547C59.5029 49.5547 58.4901 49.5874 58.2287 49.6527H58V47.6271H61.1364L65.3183 42.6937L60.8751 37.1723H58.1634V35.1467H58.4247C58.7514 35.212 59.9385 35.2447 61.9859 35.2447C64.2511 35.2447 65.5797 35.212 65.9718 35.1467H66.2658V37.1723H65.351L66.4945 38.5772C67.2351 39.492 67.6162 39.9494 67.638 39.9494C67.7251 39.9494 68.139 39.4702 68.8795 38.5118L70.023 37.1723H68.8142V35.1467H69.0755C69.4022 35.212 70.5566 35.2447 72.5387 35.2447C74.3029 35.2447 75.3157 35.212 75.5771 35.1467H75.8058V37.1723H72.702L68.9122 41.6156L73.7802 47.5944L75.1197 47.6271H76.4592V49.6527H76.1979C75.8711 49.5874 74.6841 49.5547 72.6367 49.5547C70.3715 49.5547 69.0429 49.5874 68.6508 49.6527H68.3568V47.6271H69.2716C69.2716 47.6053 68.8359 47.0608 67.9647 45.9935C67.0935 44.9263 66.647 44.3709 66.6252 44.3273L63.7828 47.5944L64.4036 47.6271H64.9916V49.6527H64.7303Z" fill="black"/>
<path d="M79.3166 26.5493C79.3166 25.4867 79.3936 24.4781 79.5476 23.5234C79.7016 22.5686 79.8786 21.7448 80.0788 21.0518C80.279 20.3589 80.5639 19.6813 80.9335 19.0191C81.3031 18.357 81.5956 17.8411 81.8112 17.4715C82.0268 17.102 82.3502 16.7016 82.7814 16.2704C83.2125 15.8393 83.4666 15.5775 83.5436 15.4851C83.6206 15.3927 83.8131 15.231 84.1211 15H84.4214H84.5138C84.7293 15 84.8371 15.0693 84.8371 15.2079C84.8371 15.2541 84.7062 15.4158 84.4445 15.693C84.1827 15.9701 83.867 16.3782 83.4974 16.9172C83.1278 17.4561 82.7506 18.1183 82.3656 18.9037C81.9806 19.689 81.6572 20.7515 81.3955 22.0913C81.1337 23.431 81.0028 24.917 81.0028 26.5493C81.0028 28.1816 81.1337 29.6599 81.3955 30.9842C81.6572 32.3085 81.9729 33.3787 82.3425 34.1949C82.7121 35.011 83.0893 35.6732 83.4743 36.1814C83.8593 36.6895 84.1827 37.0976 84.4445 37.4056C84.7062 37.7136 84.8371 37.8753 84.8371 37.8907C84.8371 38.0292 84.7216 38.0985 84.4907 38.0985H84.4214H84.1211L83.4743 37.5442C82.0268 36.2353 80.972 34.603 80.3098 32.6473C79.6477 30.6916 79.3166 28.6589 79.3166 26.5493Z" fill="black"/>
<path d="M91.0506 18.9729L90.7504 19.0884C90.5348 19.1654 90.2268 19.2424 89.8264 19.3194C89.426 19.3964 88.9795 19.4503 88.4867 19.4811H88.0478V18.4186H88.4867C89.2105 18.3878 89.8803 18.2723 90.4963 18.0721C91.1122 17.8719 91.5434 17.6871 91.7898 17.5177C92.0362 17.3483 92.2518 17.179 92.4366 17.0096C92.4674 16.9634 92.5598 16.9403 92.7137 16.9403C92.8523 16.9403 92.9832 16.9865 93.1064 17.0789V23.9853L93.1295 30.9149C93.2373 31.0227 93.3297 31.092 93.4067 31.1228C93.4837 31.1536 93.6685 31.1844 93.9611 31.2152C94.2536 31.246 94.731 31.2614 95.3932 31.2614H95.9937V32.3239H95.7396C95.4163 32.2777 94.192 32.2546 92.067 32.2546C89.9727 32.2546 88.7639 32.2777 88.4405 32.3239H88.1633V31.2614H88.7639C89.1027 31.2614 89.3953 31.2614 89.6416 31.2614C89.888 31.2614 90.0805 31.2537 90.2191 31.2383C90.3577 31.2229 90.4809 31.1998 90.5887 31.169C90.6965 31.1382 90.7581 31.1228 90.7735 31.1228C90.7889 31.1228 90.8351 31.0843 90.9121 31.0073C90.989 30.9303 91.0352 30.8995 91.0506 30.9149V18.9729Z" fill="black"/>
<path d="M99.0658 15.0231L99.1582 15C99.2352 15 99.3122 15 99.3892 15H99.6664L100.313 15.5544C101.761 16.8633 102.815 18.4956 103.478 20.4513C104.14 22.4069 104.471 24.4396 104.471 26.5493C104.471 27.5964 104.394 28.605 104.24 29.5752C104.086 30.5453 103.909 31.3692 103.709 32.0467C103.508 32.7243 103.224 33.4018 102.854 34.0794C102.484 34.757 102.192 35.2728 101.976 35.627C101.761 35.9812 101.445 36.3739 101.029 36.805C100.613 37.2362 100.367 37.4903 100.29 37.5673C100.213 37.6443 100.036 37.7906 99.7588 38.0061C99.7126 38.0523 99.6818 38.0831 99.6664 38.0985H99.3892C99.266 38.0985 99.1813 38.0985 99.1351 38.0985C99.0889 38.0985 99.0504 38.0754 99.0196 38.0292C98.9888 37.983 98.9657 37.9138 98.9503 37.8214C98.9657 37.806 99.0504 37.7059 99.2044 37.5211C101.591 35.0418 102.785 31.3846 102.785 26.5493C102.785 21.714 101.591 18.0567 99.2044 15.5775C99.0504 15.3927 98.9657 15.2926 98.9503 15.2772C98.9503 15.154 98.9888 15.0693 99.0658 15.0231Z" fill="black"/>
<path d="M79.3628 45.8532C80.2251 44.6059 81.4032 43.9822 82.8969 43.9822C83.636 43.9822 84.3752 44.1824 85.1143 44.5828C85.8535 44.9832 86.454 45.6915 86.916 46.7079C87.4858 47.986 87.7707 49.7415 87.7707 51.9743C87.7707 54.3612 87.4396 56.186 86.7774 57.4487C86.4694 58.0954 86.046 58.6113 85.507 58.9963C84.968 59.3813 84.4984 59.6199 84.098 59.7123C83.6976 59.8047 83.3049 59.8586 82.92 59.874C82.5196 59.874 82.1192 59.8278 81.7188 59.7354C81.3185 59.643 80.8488 59.3967 80.3098 58.9963C79.7709 58.5959 79.3474 58.08 79.0394 57.4487C78.3773 56.186 78.0462 54.3612 78.0462 51.9743C78.0462 49.2949 78.485 47.2545 79.3628 45.8532ZM84.56 45.576C84.098 45.0833 83.5513 44.8369 82.92 44.8369C82.2732 44.8369 81.7188 45.0833 81.2569 45.576C80.8719 45.9764 80.6178 46.5308 80.4946 47.2391C80.3714 47.9475 80.3098 49.4258 80.3098 51.674C80.3098 54.1071 80.3714 55.7086 80.4946 56.4785C80.6178 57.2485 80.895 57.8568 81.3262 58.3033C81.7573 58.7653 82.2886 58.9963 82.92 58.9963C83.5359 58.9963 84.0595 58.7653 84.4907 58.3033C84.9372 57.8414 85.2144 57.1946 85.3222 56.363C85.43 55.5315 85.4916 53.9685 85.507 51.674C85.507 49.4412 85.4454 47.9706 85.3222 47.2622C85.199 46.5539 84.9449 45.9918 84.56 45.576Z" fill="black"/>
<path d="M75 322.523C75 320.323 75.8277 318.232 77.483 316.25C79.1384 314.268 81.0006 313.266 83.0698 313.245C84.3766 313.245 85.3785 313.811 86.0755 314.944C86.0973 314.922 86.1518 314.856 86.2389 314.748C86.326 314.639 86.4458 314.519 86.5983 314.388C86.7507 314.258 86.925 314.127 87.121 313.996C87.8616 313.473 88.3625 313.212 88.6239 313.212C88.711 313.212 88.7872 313.245 88.8526 313.31C88.9179 313.375 88.9506 313.43 88.9506 313.473C88.9506 313.669 88.1992 316.773 86.6963 322.785C85.1499 328.97 84.3766 332.107 84.3766 332.194C84.3766 332.368 84.8667 332.466 85.8468 332.488H86.6636C86.7943 332.662 86.8596 332.76 86.8596 332.782C86.8596 332.804 86.827 333 86.7616 333.37C86.6745 333.653 86.5656 333.86 86.4349 333.991H86.0102C85.335 333.947 84.1588 333.926 82.4817 333.926C81.8718 333.926 81.3164 333.926 80.8155 333.926C80.3145 333.926 79.9116 333.926 79.6066 333.926C79.3017 333.926 79.1166 333.936 79.0512 333.958C78.7463 333.958 78.5938 333.871 78.5938 333.697C78.5938 333.632 78.6156 333.468 78.6592 333.207C78.7463 332.858 78.8225 332.651 78.8879 332.586C78.9532 332.521 79.171 332.488 79.5413 332.488C80.5868 332.488 81.2184 332.412 81.4362 332.259C81.6105 332.15 81.9154 331.192 82.351 329.384C82.7866 327.576 83.0153 326.651 83.0371 326.607C83.0371 326.585 82.9609 326.618 82.8084 326.705C81.7629 327.555 80.6739 327.979 79.5413 327.979C78.3434 327.979 77.287 327.544 76.3722 326.673C75.4574 325.801 75 324.418 75 322.523ZM85.4221 317.002C84.9212 315.281 84.1044 314.421 82.9718 314.421C82.2094 314.421 81.4798 314.758 80.7828 315.434C80.0858 316.109 79.5413 316.991 79.1492 318.08C78.5176 319.801 78.0711 321.587 77.8097 323.438C77.8097 323.503 77.8097 323.623 77.8097 323.797C77.8097 323.972 77.7988 324.102 77.7771 324.19C77.7771 325.17 77.9731 325.845 78.3651 326.215C78.7572 326.585 79.2255 326.781 79.77 326.803C80.9462 326.803 82.155 326.019 83.3965 324.451L83.6579 324.092L85.4221 317.002Z" fill="#5055CC"/>
<path d="M92.0217 319.485C92.0217 317.982 92.1306 316.555 92.3484 315.205C92.5662 313.855 92.8167 312.689 93.0998 311.709C93.383 310.729 93.7859 309.771 94.3087 308.834C94.8314 307.898 95.2453 307.168 95.5502 306.645C95.8551 306.122 96.3125 305.556 96.9224 304.946C97.5322 304.336 97.8916 303.966 98.0005 303.835C98.1094 303.705 98.3817 303.476 98.8173 303.149H99.242H99.3727C99.6776 303.149 99.8301 303.247 99.8301 303.443C99.8301 303.509 99.645 303.737 99.2747 304.129C98.9044 304.521 98.4579 305.099 97.9352 305.861C97.4124 306.623 96.8788 307.56 96.3343 308.671C95.7898 309.782 95.3324 311.284 94.9621 313.179C94.5918 315.074 94.4067 317.176 94.4067 319.485C94.4067 321.794 94.5918 323.885 94.9621 325.758C95.3324 327.631 95.7789 329.145 96.3016 330.299C96.8244 331.453 97.358 332.39 97.9025 333.109C98.447 333.828 98.9044 334.405 99.2747 334.84C99.645 335.276 99.8301 335.505 99.8301 335.526C99.8301 335.722 99.6668 335.82 99.34 335.82H99.242H98.8173L97.9025 335.036C95.8551 333.185 94.3631 330.876 93.4266 328.11C92.49 325.344 92.0217 322.469 92.0217 319.485Z" fill="#5055CC"/>
<path d="M109.076 327.653C108.749 327.587 107.595 327.555 105.613 327.555C103.849 327.555 102.836 327.587 102.574 327.653H102.346V325.627H105.482L109.664 320.694L105.221 315.172H102.509V313.147H102.771C103.097 313.212 104.284 313.245 106.332 313.245C108.597 313.245 109.926 313.212 110.318 313.147H110.612V315.172H109.697L110.84 316.577C111.581 317.492 111.962 317.949 111.984 317.949C112.071 317.949 112.485 317.47 113.225 316.512L114.369 315.172H113.16V313.147H113.421C113.748 313.212 114.902 313.245 116.884 313.245C118.649 313.245 119.662 313.212 119.923 313.147H120.152V315.172H117.048L113.258 319.616L118.126 325.594L119.466 325.627H120.805V327.653H120.544C120.217 327.587 119.03 327.555 116.982 327.555C114.717 327.555 113.389 327.587 112.997 327.653H112.703V325.627H113.617C113.617 325.605 113.182 325.061 112.311 323.994C111.439 322.926 110.993 322.371 110.971 322.327L108.129 325.594L108.749 325.627H109.337V327.653H109.076Z" fill="#5055CC"/>
<path d="M122.092 323.66C121.984 323.553 121.93 323.476 121.93 323.429C121.93 323.368 121.953 323.245 121.999 323.06C122.045 322.875 122.084 322.767 122.115 322.737C122.146 322.66 122.215 322.621 122.323 322.621C122.43 322.621 122.823 322.613 123.501 322.598H124.725L125.164 320.75C125.21 320.581 125.264 320.357 125.325 320.08C125.387 319.803 125.441 319.603 125.487 319.48C125.533 319.356 125.58 319.202 125.626 319.018C125.672 318.833 125.734 318.702 125.811 318.625C125.888 318.548 125.965 318.456 126.042 318.348C126.119 318.24 126.226 318.171 126.365 318.14C126.504 318.109 126.642 318.094 126.781 318.094C127.058 318.109 127.25 318.194 127.358 318.348C127.466 318.502 127.52 318.648 127.52 318.787C127.52 318.894 127.451 319.256 127.312 319.872C127.173 320.488 127.019 321.097 126.85 321.697L126.619 322.552C126.619 322.583 127.004 322.598 127.774 322.598H128.952C129.06 322.706 129.114 322.79 129.114 322.852C129.114 323.191 129.014 323.46 128.813 323.66H126.342L125.51 327.01C124.91 329.474 124.609 330.798 124.609 330.983C124.609 331.629 124.817 331.953 125.233 331.953C125.772 331.953 126.296 331.691 126.804 331.167C127.312 330.644 127.72 329.997 128.028 329.227C128.059 329.135 128.097 329.081 128.143 329.066C128.19 329.05 128.305 329.035 128.49 329.019H128.582C128.813 329.019 128.929 329.081 128.929 329.204C128.929 329.25 128.906 329.343 128.86 329.481C128.783 329.728 128.644 330.02 128.444 330.359C128.244 330.698 127.982 331.06 127.658 331.445C127.335 331.83 126.942 332.153 126.48 332.415C126.018 332.677 125.549 332.807 125.071 332.807C124.609 332.807 124.171 332.692 123.755 332.461C123.339 332.23 123.039 331.83 122.854 331.26C122.823 331.137 122.808 330.929 122.808 330.636V330.22L123.616 326.987C124.155 324.815 124.432 323.722 124.448 323.707C124.448 323.676 124.055 323.66 123.27 323.66H122.092Z" fill="#5055CC"/>
<path d="M131.77 327.079C131.77 327.079 131.77 326.979 131.77 326.779C131.77 326.579 131.878 326.425 132.093 326.317H145.514C145.745 326.44 145.86 326.594 145.86 326.779C145.86 326.964 145.745 327.118 145.514 327.241H132.093C131.878 327.133 131.77 326.979 131.77 326.779V327.079Z" fill="#5055CC"/>
<path d="M152.72 319.202L152.42 319.318C152.204 319.395 151.896 319.472 151.496 319.549C151.096 319.626 150.649 319.68 150.156 319.711H149.718V318.648H150.156C150.88 318.617 151.55 318.502 152.166 318.302C152.782 318.101 153.213 317.917 153.459 317.747C153.706 317.578 153.921 317.408 154.106 317.239C154.137 317.193 154.229 317.17 154.383 317.17C154.522 317.17 154.653 317.216 154.776 317.308V324.215L154.799 331.144C154.907 331.252 154.999 331.321 155.076 331.352C155.153 331.383 155.338 331.414 155.631 331.445C155.923 331.475 156.401 331.491 157.063 331.491H157.663V332.553H157.409C157.086 332.507 155.862 332.484 153.737 332.484C151.642 332.484 150.434 332.507 150.11 332.553H149.833V331.491H150.434C150.772 331.491 151.065 331.491 151.311 331.491C151.558 331.491 151.75 331.483 151.889 331.468C152.027 331.452 152.151 331.429 152.258 331.398C152.366 331.368 152.428 331.352 152.443 331.352C152.459 331.352 152.505 331.314 152.582 331.237C152.659 331.16 152.705 331.129 152.72 331.144V319.202Z" fill="#5055CC"/>
<path d="M165.529 335.788H165.463C165.202 335.788 165.006 335.635 164.875 335.33V319.452L164.908 303.574C165.126 303.291 165.333 303.149 165.529 303.149C165.812 303.149 166.03 303.313 166.182 303.639V335.33C166.008 335.635 165.812 335.788 165.594 335.788H165.529Z" fill="#5055CC"/>
<path d="M177.486 327.653C177.16 327.587 176.005 327.555 174.023 327.555C172.259 327.555 171.246 327.587 170.985 327.653H170.756V325.627H173.892L178.074 320.694L173.631 315.172H170.919V313.147H171.181C171.507 313.212 172.695 313.245 174.742 313.245C177.007 313.245 178.336 313.212 178.728 313.147H179.022V315.172H178.107L179.251 316.577C179.991 317.492 180.372 317.949 180.394 317.949C180.481 317.949 180.895 317.47 181.636 316.512L182.779 315.172H181.57V313.147H181.832C182.158 313.212 183.313 313.245 185.295 313.245C187.059 313.245 188.072 313.212 188.333 313.147H188.562V315.172H185.458L181.668 319.616L186.536 325.594L187.876 325.627H189.215V327.653H188.954C188.627 327.587 187.44 327.555 185.393 327.555C183.128 327.555 181.799 327.587 181.407 327.653H181.113V325.627H182.028C182.028 325.605 181.592 325.061 180.721 323.994C179.849 322.926 179.403 322.371 179.381 322.327L176.539 325.594L177.16 325.627H177.748V327.653H177.486Z" fill="#5055CC"/>
<path d="M190.502 323.66C190.394 323.553 190.34 323.476 190.34 323.429C190.34 323.368 190.363 323.245 190.41 323.06C190.456 322.875 190.494 322.767 190.525 322.737C190.556 322.66 190.625 322.621 190.733 322.621C190.841 322.621 191.233 322.613 191.911 322.598H193.135L193.574 320.75C193.62 320.581 193.674 320.357 193.736 320.08C193.797 319.803 193.851 319.603 193.897 319.48C193.944 319.356 193.99 319.202 194.036 319.018C194.082 318.833 194.144 318.702 194.221 318.625C194.298 318.548 194.375 318.456 194.452 318.348C194.529 318.24 194.637 318.171 194.775 318.14C194.914 318.109 195.052 318.094 195.191 318.094C195.468 318.109 195.661 318.194 195.768 318.348C195.876 318.502 195.93 318.648 195.93 318.787C195.93 318.894 195.861 319.256 195.722 319.872C195.584 320.488 195.43 321.097 195.26 321.697L195.029 322.552C195.029 322.583 195.414 322.598 196.184 322.598H197.362C197.47 322.706 197.524 322.79 197.524 322.852C197.524 323.191 197.424 323.46 197.224 323.66H194.752L193.92 327.01C193.32 329.474 193.02 330.798 193.02 330.983C193.02 331.629 193.228 331.953 193.643 331.953C194.182 331.953 194.706 331.691 195.214 331.167C195.722 330.644 196.13 329.997 196.438 329.227C196.469 329.135 196.508 329.081 196.554 329.066C196.6 329.05 196.715 329.035 196.9 329.019H196.993C197.224 329.019 197.339 329.081 197.339 329.204C197.339 329.25 197.316 329.343 197.27 329.481C197.193 329.728 197.054 330.02 196.854 330.359C196.654 330.698 196.392 331.06 196.069 331.445C195.745 331.83 195.353 332.153 194.891 332.415C194.429 332.677 193.959 332.807 193.482 332.807C193.02 332.807 192.581 332.692 192.165 332.461C191.749 332.23 191.449 331.83 191.264 331.26C191.233 331.137 191.218 330.929 191.218 330.636V330.22L192.026 326.987C192.565 324.815 192.843 323.722 192.858 323.707C192.858 323.676 192.465 323.66 191.68 323.66H190.502Z" fill="#5055CC"/>
<path d="M202.424 326.509C202.424 326.509 202.424 326.237 202.424 325.692C202.424 325.148 202.598 324.68 202.947 324.288C203.295 323.896 203.764 323.7 204.352 323.7C204.962 323.7 205.506 323.972 205.985 324.516C206.465 325.061 206.715 326.019 206.737 327.391C206.737 328.154 206.639 328.894 206.443 329.613C206.247 330.332 206.018 330.953 205.757 331.475C205.495 331.998 205.212 332.444 204.907 332.815C204.602 333.185 204.341 333.479 204.123 333.697C203.905 333.915 203.764 334.013 203.698 333.991C203.611 333.991 203.47 333.893 203.274 333.697C203.078 333.501 202.98 333.359 202.98 333.272C202.98 333.185 203.099 333.011 203.339 332.749C203.579 332.488 203.851 332.161 204.156 331.769C204.461 331.377 204.744 330.833 205.005 330.136C205.267 329.439 205.441 328.644 205.528 327.751V327.359L205.495 327.391C205.452 327.413 205.397 327.435 205.332 327.457C205.267 327.478 205.201 327.511 205.136 327.555C205.071 327.598 204.973 327.62 204.842 327.62C204.711 327.62 204.58 327.631 204.45 327.653C203.862 327.653 203.383 327.468 203.012 327.097L202.424 326.509Z" fill="#5055CC"/>
<path d="M221.821 327.653C221.494 327.587 220.34 327.555 218.358 327.555C216.594 327.555 215.581 327.587 215.32 327.653H215.091V325.627H218.227L222.409 320.694L217.966 315.172H215.254V313.147H215.516C215.842 313.212 217.029 313.245 219.077 313.245C221.342 313.245 222.671 313.212 223.063 313.147H223.357V315.172H222.442L223.585 316.577C224.326 317.492 224.707 317.949 224.729 317.949C224.816 317.949 225.23 317.47 225.97 316.512L227.114 315.172H225.905V313.147H226.166C226.493 313.212 227.647 313.245 229.63 313.245C231.394 313.245 232.407 313.212 232.668 313.147H232.897V315.172H229.793L226.003 319.616L230.871 325.594L232.211 325.627H233.55V327.653H233.289C232.962 327.587 231.775 327.555 229.728 327.555C227.462 327.555 226.134 327.587 225.742 327.653H225.448V325.627H226.362C226.362 325.605 225.927 325.061 225.056 323.994C224.184 322.926 223.738 322.371 223.716 322.327L220.874 325.594L221.494 325.627H222.082V327.653H221.821Z" fill="#5055CC"/>
<path d="M236.407 304.549C236.407 303.487 236.484 302.478 236.638 301.523C236.792 300.569 236.969 299.745 237.17 299.052C237.37 298.359 237.655 297.681 238.024 297.019C238.394 296.357 238.686 295.841 238.902 295.472C239.118 295.102 239.441 294.702 239.872 294.27C240.303 293.839 240.557 293.577 240.634 293.485C240.711 293.393 240.904 293.231 241.212 293H241.512H241.605C241.82 293 241.928 293.069 241.928 293.208C241.928 293.254 241.797 293.416 241.535 293.693C241.274 293.97 240.958 294.378 240.588 294.917C240.219 295.456 239.841 296.118 239.456 296.904C239.071 297.689 238.748 298.752 238.486 300.091C238.224 301.431 238.094 302.917 238.094 304.549C238.094 306.182 238.224 307.66 238.486 308.984C238.748 310.309 239.064 311.379 239.433 312.195C239.803 313.011 240.18 313.673 240.565 314.181C240.95 314.69 241.274 315.098 241.535 315.406C241.797 315.714 241.928 315.875 241.928 315.891C241.928 316.029 241.812 316.099 241.581 316.099H241.512H241.212L240.565 315.544C239.118 314.235 238.063 312.603 237.401 310.647C236.738 308.692 236.407 306.659 236.407 304.549Z" fill="#5055CC"/>
<path d="M245.739 300.415C245.323 300.415 244.992 300.276 244.746 299.999C244.5 299.722 244.376 299.383 244.376 298.983C244.376 297.889 244.784 296.942 245.601 296.141C246.417 295.341 247.433 294.94 248.65 294.94C250.051 294.94 251.221 295.371 252.161 296.234C253.1 297.096 253.577 298.213 253.593 299.583C253.593 300.245 253.439 300.877 253.131 301.477C252.823 302.078 252.453 302.601 252.022 303.048C251.591 303.494 250.975 304.064 250.174 304.757C249.62 305.235 248.85 305.943 247.864 306.882L246.501 308.176L248.257 308.199C250.675 308.199 251.96 308.16 252.114 308.083C252.222 308.053 252.407 307.367 252.669 306.028V305.958H253.593V306.028C253.577 306.074 253.477 306.774 253.292 308.13C253.108 309.485 252.992 310.193 252.946 310.255V310.324H244.376V309.885V309.608C244.376 309.5 244.423 309.385 244.515 309.261C244.607 309.138 244.838 308.869 245.208 308.453C245.655 307.96 246.039 307.529 246.363 307.159C246.501 307.005 246.763 306.721 247.148 306.305C247.533 305.889 247.795 305.604 247.934 305.45C248.072 305.296 248.295 305.042 248.603 304.688C248.911 304.334 249.127 304.072 249.25 303.903C249.373 303.733 249.55 303.502 249.781 303.21C250.012 302.917 250.174 302.671 250.267 302.47C250.359 302.27 250.474 302.047 250.613 301.801C250.752 301.554 250.852 301.308 250.913 301.061C250.975 300.815 251.029 300.584 251.075 300.368C251.121 300.153 251.144 299.899 251.144 299.606C251.144 298.636 250.882 297.797 250.359 297.088C249.835 296.38 249.089 296.026 248.118 296.026C247.61 296.026 247.164 296.157 246.779 296.419C246.394 296.68 246.124 296.934 245.97 297.181C245.816 297.427 245.739 297.574 245.739 297.62C245.739 297.635 245.778 297.643 245.855 297.643C246.132 297.643 246.417 297.751 246.709 297.966C247.002 298.182 247.148 298.536 247.148 299.029C247.148 299.414 247.025 299.737 246.779 299.999C246.532 300.261 246.186 300.399 245.739 300.415Z" fill="#5055CC"/>
<path d="M256.157 293.023L256.249 293C256.326 293 256.403 293 256.48 293H256.757L257.404 293.554C258.851 294.863 259.906 296.496 260.568 298.451C261.231 300.407 261.562 302.44 261.562 304.549C261.562 305.596 261.485 306.605 261.331 307.575C261.177 308.545 261 309.369 260.799 310.047C260.599 310.724 260.314 311.402 259.945 312.079C259.575 312.757 259.283 313.273 259.067 313.627C258.851 313.981 258.536 314.374 258.12 314.805C257.704 315.236 257.458 315.49 257.381 315.567C257.304 315.644 257.127 315.791 256.85 316.006C256.803 316.052 256.773 316.083 256.757 316.099H256.48C256.357 316.099 256.272 316.099 256.226 316.099C256.18 316.099 256.141 316.075 256.11 316.029C256.08 315.983 256.057 315.914 256.041 315.821C256.057 315.806 256.141 315.706 256.295 315.521C258.682 313.042 259.876 309.385 259.876 304.549C259.876 299.714 258.682 296.057 256.295 293.577C256.141 293.393 256.057 293.293 256.041 293.277C256.041 293.154 256.08 293.069 256.157 293.023Z" fill="#5055CC"/>
<path d="M236.454 323.853C237.316 322.606 238.494 321.982 239.988 321.982C240.727 321.982 241.466 322.182 242.205 322.583C242.944 322.983 243.545 323.692 244.007 324.708C244.577 325.986 244.861 327.741 244.861 329.974C244.861 332.361 244.53 334.186 243.868 335.449C243.56 336.095 243.137 336.611 242.598 336.996C242.059 337.381 241.589 337.62 241.189 337.712C240.788 337.805 240.396 337.859 240.011 337.874C239.61 337.874 239.21 337.828 238.81 337.735C238.409 337.643 237.94 337.397 237.401 336.996C236.862 336.596 236.438 336.08 236.13 335.449C235.468 334.186 235.137 332.361 235.137 329.974C235.137 327.295 235.576 325.255 236.454 323.853ZM241.651 323.576C241.189 323.083 240.642 322.837 240.011 322.837C239.364 322.837 238.81 323.083 238.348 323.576C237.963 323.976 237.709 324.531 237.585 325.239C237.462 325.947 237.401 327.426 237.401 329.674C237.401 332.107 237.462 333.709 237.585 334.479C237.709 335.248 237.986 335.857 238.417 336.303C238.848 336.765 239.379 336.996 240.011 336.996C240.627 336.996 241.15 336.765 241.581 336.303C242.028 335.841 242.305 335.195 242.413 334.363C242.521 333.531 242.582 331.968 242.598 329.674C242.598 327.441 242.536 325.971 242.413 325.262C242.29 324.554 242.036 323.992 241.651 323.576Z" fill="#5055CC"/>
<path d="M267.355 303.182L267.486 303.149C267.595 303.149 267.703 303.149 267.812 303.149H268.204L269.119 303.933C271.167 305.785 272.659 308.094 273.595 310.86C274.532 313.626 275 316.501 275 319.485C275 320.966 274.891 322.393 274.673 323.765C274.455 325.137 274.205 326.302 273.922 327.261C273.639 328.219 273.236 329.177 272.713 330.136C272.19 331.094 271.776 331.824 271.472 332.325C271.167 332.826 270.72 333.381 270.132 333.991C269.544 334.601 269.195 334.96 269.087 335.069C268.978 335.178 268.727 335.385 268.335 335.69C268.27 335.755 268.226 335.799 268.204 335.82H267.812C267.638 335.82 267.518 335.82 267.453 335.82C267.388 335.82 267.333 335.788 267.29 335.722C267.246 335.657 267.213 335.559 267.192 335.428C267.213 335.407 267.333 335.265 267.551 335.004C270.927 331.497 272.615 326.324 272.615 319.485C272.615 312.646 270.927 307.473 267.551 303.966C267.333 303.705 267.213 303.563 267.192 303.541C267.192 303.367 267.246 303.247 267.355 303.182Z" fill="#5055CC"/>
<path d="M21.7303 265.653C21.4036 265.587 20.2492 265.555 18.2671 265.555C16.5029 265.555 15.4901 265.587 15.2287 265.653H15V263.627H18.1364L22.3183 258.694L17.8751 253.172H15.1634V251.147H15.4247C15.7514 251.212 16.9385 251.245 18.9859 251.245C21.2511 251.245 22.5797 251.212 22.9718 251.147H23.2658V253.172H22.351L23.4945 254.577C24.2351 255.492 24.6162 255.949 24.638 255.949C24.7251 255.949 25.139 255.47 25.8795 254.512L27.023 253.172H25.8142V251.147H26.0755C26.4022 251.212 27.5566 251.245 29.5387 251.245C31.3029 251.245 32.3157 251.212 32.5771 251.147H32.8058V253.172H29.702L25.9122 257.616L30.7802 263.594L32.1197 263.627H33.4592V265.653H33.1979C32.8711 265.587 31.6841 265.555 29.6367 265.555C27.3715 265.555 26.0429 265.587 25.6508 265.653H25.3568V263.627H26.2716C26.2716 263.605 25.8359 263.061 24.9647 261.994C24.0935 260.926 23.647 260.371 23.6252 260.327L20.7828 263.594L21.4036 263.627H21.9916V265.653H21.7303Z" fill="black"/>
<path d="M36.3166 242.549C36.3166 241.487 36.3936 240.478 36.5476 239.523C36.7016 238.569 36.8786 237.745 37.0788 237.052C37.279 236.359 37.5639 235.681 37.9335 235.019C38.3031 234.357 38.5956 233.841 38.8112 233.472C39.0268 233.102 39.3502 232.702 39.7814 232.27C40.2125 231.839 40.4666 231.577 40.5436 231.485C40.6206 231.393 40.8131 231.231 41.1211 231H41.4214H41.5138C41.7293 231 41.8371 231.069 41.8371 231.208C41.8371 231.254 41.7062 231.416 41.4445 231.693C41.1827 231.97 40.867 232.378 40.4974 232.917C40.1278 233.456 39.7506 234.118 39.3656 234.904C38.9806 235.689 38.6572 236.752 38.3955 238.091C38.1337 239.431 38.0028 240.917 38.0028 242.549C38.0028 244.182 38.1337 245.66 38.3955 246.984C38.6572 248.309 38.9729 249.379 39.3425 250.195C39.7121 251.011 40.0893 251.673 40.4743 252.181C40.8593 252.69 41.1827 253.098 41.4445 253.406C41.7062 253.714 41.8371 253.875 41.8371 253.891C41.8371 254.029 41.7216 254.099 41.4907 254.099H41.4214H41.1211L40.4743 253.544C39.0268 252.235 37.972 250.603 37.3098 248.647C36.6477 246.692 36.3166 244.659 36.3166 242.549Z" fill="black"/>
<path d="M45.6484 238.415C45.2326 238.415 44.9015 238.276 44.6552 237.999C44.4088 237.722 44.2856 237.383 44.2856 236.983C44.2856 235.889 44.6937 234.942 45.5098 234.141C46.326 233.341 47.3423 232.94 48.5588 232.94C49.9601 232.94 51.1304 233.371 52.0698 234.234C53.0091 235.096 53.4865 236.213 53.5019 237.583C53.5019 238.245 53.3479 238.877 53.0399 239.477C52.7319 240.078 52.3624 240.601 51.9312 241.048C51.5 241.494 50.8841 242.064 50.0833 242.757C49.529 243.235 48.759 243.943 47.7735 244.882L46.4106 246.176L48.1661 246.199C50.5838 246.199 51.8696 246.16 52.0236 246.083C52.1314 246.053 52.3162 245.367 52.578 244.028V243.958H53.5019V244.028C53.4865 244.074 53.3864 244.774 53.2016 246.13C53.0168 247.485 52.9013 248.193 52.8551 248.255V248.324H44.2856V247.885V247.608C44.2856 247.5 44.3318 247.385 44.4242 247.261C44.5166 247.138 44.7476 246.869 45.1171 246.453C45.5637 245.96 45.9487 245.529 46.2721 245.159C46.4106 245.005 46.6724 244.721 47.0574 244.305C47.4424 243.889 47.7042 243.604 47.8428 243.45C47.9813 243.296 48.2046 243.042 48.5126 242.688C48.8206 242.334 49.0362 242.072 49.1594 241.903C49.2826 241.733 49.4597 241.502 49.6906 241.21C49.9216 240.917 50.0833 240.671 50.1757 240.47C50.2681 240.27 50.3836 240.047 50.5222 239.801C50.6608 239.554 50.7609 239.308 50.8225 239.061C50.8841 238.815 50.938 238.584 50.9842 238.368C51.0304 238.153 51.0535 237.899 51.0535 237.606C51.0535 236.636 50.7917 235.797 50.2681 235.088C49.7445 234.38 48.9977 234.026 48.0275 234.026C47.5194 234.026 47.0728 234.157 46.6878 234.419C46.3029 234.68 46.0334 234.934 45.8794 235.181C45.7254 235.427 45.6484 235.574 45.6484 235.62C45.6484 235.635 45.6869 235.643 45.7639 235.643C46.0411 235.643 46.326 235.751 46.6185 235.966C46.9111 236.182 47.0574 236.536 47.0574 237.029C47.0574 237.414 46.9342 237.737 46.6878 237.999C46.4414 238.261 46.095 238.399 45.6484 238.415Z" fill="black"/>
<path d="M56.0658 231.023L56.1582 231C56.2352 231 56.3122 231 56.3892 231H56.6664L57.3131 231.554C58.7606 232.863 59.8155 234.496 60.4776 236.451C61.1398 238.407 61.4709 240.44 61.4709 242.549C61.4709 243.596 61.3939 244.605 61.2399 245.575C61.0859 246.545 60.9088 247.369 60.7086 248.047C60.5084 248.724 60.2236 249.402 59.854 250.079C59.4844 250.757 59.1918 251.273 58.9762 251.627C58.7606 251.981 58.445 252.374 58.0292 252.805C57.6134 253.236 57.367 253.49 57.29 253.567C57.213 253.644 57.036 253.791 56.7588 254.006C56.7126 254.052 56.6818 254.083 56.6664 254.099H56.3892C56.266 254.099 56.1813 254.099 56.1351 254.099C56.0889 254.099 56.0504 254.075 56.0196 254.029C55.9888 253.983 55.9657 253.914 55.9503 253.821C55.9657 253.806 56.0504 253.706 56.2044 253.521C58.5913 251.042 59.7847 247.385 59.7847 242.549C59.7847 237.714 58.5913 234.057 56.2044 231.577C56.0504 231.393 55.9657 231.293 55.9503 231.277C55.9503 231.154 55.9888 231.069 56.0658 231.023Z" fill="black"/>
<path d="M36.3628 261.853C37.2251 260.606 38.4032 259.982 39.8969 259.982C40.636 259.982 41.3752 260.182 42.1143 260.583C42.8535 260.983 43.454 261.692 43.916 262.708C44.4858 263.986 44.7707 265.741 44.7707 267.974C44.7707 270.361 44.4396 272.186 43.7774 273.449C43.4694 274.095 43.046 274.611 42.507 274.996C41.968 275.381 41.4984 275.62 41.098 275.712C40.6976 275.805 40.3049 275.859 39.92 275.874C39.5196 275.874 39.1192 275.828 38.7188 275.735C38.3185 275.643 37.8488 275.397 37.3098 274.996C36.7709 274.596 36.3474 274.08 36.0394 273.449C35.3773 272.186 35.0462 270.361 35.0462 267.974C35.0462 265.295 35.485 263.255 36.3628 261.853ZM41.56 261.576C41.098 261.083 40.5513 260.837 39.92 260.837C39.2732 260.837 38.7188 261.083 38.2569 261.576C37.8719 261.976 37.6178 262.531 37.4946 263.239C37.3714 263.947 37.3098 265.426 37.3098 267.674C37.3098 270.107 37.3714 271.709 37.4946 272.479C37.6178 273.248 37.895 273.857 38.3262 274.303C38.7573 274.765 39.2886 274.996 39.92 274.996C40.5359 274.996 41.0595 274.765 41.4907 274.303C41.9372 273.841 42.2144 273.195 42.3222 272.363C42.43 271.531 42.4916 269.968 42.507 267.674C42.507 265.441 42.4454 263.971 42.3222 263.262C42.199 262.554 41.9449 261.992 41.56 261.576Z" fill="black"/>
<g opacity="0.8" filter="url(#filter0_f_9_144)">
<circle cx="367" cy="212" r="60" fill="#FF6464"/>
</g>
<g opacity="0.8" filter="url(#filter1_f_9_144)">
<circle cx="361" cy="248" r="60" fill="#646AFF"/>
</g>
<g opacity="0.8" filter="url(#filter2_f_9_144)">
<circle cx="364" cy="230" r="60" fill="#64FFB4"/>
</g>
<path d="M103.758 66.4378L106.342 67.8628L106.825 66.9872L104.242 65.5622L103.758 66.4378ZM111.508 70.7128L116.675 73.5628L117.158 72.6872L111.992 69.8372L111.508 70.7128ZM121.842 76.4128L127.008 79.2628L127.492 78.3872L122.325 75.5372L121.842 76.4128ZM132.175 82.1128L137.342 84.9628L137.825 84.0872L132.658 81.2372L132.175 82.1128ZM142.508 87.8128L147.675 90.6628L148.158 89.7872L142.991 86.9372L142.508 87.8128ZM152.842 93.5128L158.008 96.3628L158.491 95.4872L153.325 92.6372L152.842 93.5128ZM163.175 99.2128L168.342 102.063L168.825 101.187L163.658 98.3372L163.175 99.2128ZM173.508 104.913L178.675 107.763L179.158 106.887L173.991 104.037L173.508 104.913ZM183.842 110.613L189.008 113.463L189.492 112.587L184.325 109.737L183.842 110.613ZM194.175 116.313L199.342 119.163L199.825 118.287L194.658 115.437L194.175 116.313ZM204.509 122.013L209.675 124.863L210.158 123.987L204.992 121.137L204.509 122.013ZM214.842 127.713L220.008 130.563L220.491 129.687L215.325 126.837L214.842 127.713ZM225.175 133.413L230.342 136.263L230.825 135.387L225.658 132.537L225.175 133.413ZM235.508 139.113L240.675 141.963L241.158 141.087L235.992 138.237L235.508 139.113ZM245.842 144.813L251.009 147.663L251.492 146.787L246.325 143.937L245.842 144.813ZM256.175 150.513L261.342 153.363L261.825 152.487L256.658 149.637L256.175 150.513ZM266.509 156.213L271.675 159.063L272.158 158.187L266.992 155.337L266.509 156.213ZM276.842 161.913L282.009 164.763L282.492 163.887L277.325 161.037L276.842 161.913ZM287.175 167.613L292.342 170.463L292.825 169.587L287.658 166.737L287.175 167.613ZM297.509 173.313L302.675 176.163L303.158 175.287L297.992 172.437L297.509 173.313ZM307.842 179.013L313.008 181.863L313.491 180.987L308.325 178.137L307.842 179.013ZM318.175 184.713L323.342 187.563L323.825 186.687L318.658 183.837L318.175 184.713ZM328.508 190.413L333.675 193.263L334.158 192.387L328.992 189.537L328.508 190.413ZM338.842 196.113L344.008 198.963L344.491 198.087L339.325 195.237L338.842 196.113ZM349.175 201.813L354.342 204.663L354.825 203.787L349.658 200.937L349.175 201.813ZM359.508 207.513L364.675 210.363L365.158 209.487L359.991 206.637L359.508 207.513ZM369.842 213.213L375.008 216.063L375.491 215.187L370.325 212.337L369.842 213.213ZM380.175 218.913L385.342 221.763L385.825 220.887L380.658 218.037L380.175 218.913ZM390.508 224.613L395.675 227.463L396.158 226.587L390.991 223.737L390.508 224.613ZM400.842 230.313L406.008 233.163L406.491 232.287L401.325 229.437L400.842 230.313ZM411.175 236.013L413.758 237.438L414.241 236.562L411.658 235.137L411.175 236.013Z" fill="black"/>
<path d="M67.0248 263.499L69.9816 263.353L69.9321 262.354L66.9752 262.501L67.0248 263.499ZM75.8954 263.06L81.8092 262.767L81.7597 261.768L75.8459 262.061L75.8954 263.06ZM87.723 262.474L93.6368 262.18L93.5873 261.182L87.6735 261.475L87.723 262.474ZM99.5506 261.887L105.464 261.594L105.415 260.595L99.5011 260.889L99.5506 261.887ZM111.378 261.301L117.292 261.008L117.242 260.009L111.329 260.302L111.378 261.301ZM123.206 260.715L129.12 260.422L129.07 259.423L123.156 259.716L123.206 260.715ZM135.033 260.129L140.947 259.836L140.898 258.837L134.984 259.13L135.033 260.129ZM146.861 259.542L152.775 259.249L152.725 258.251L146.811 258.544L146.861 259.542ZM158.689 258.956L164.602 258.663L164.553 257.664L158.639 257.958L158.689 258.956ZM170.516 258.37L176.43 258.077L176.38 257.078L170.467 257.371L170.516 258.37ZM182.344 257.784L188.257 257.491L188.208 256.492L182.294 256.785L182.344 257.784ZM194.171 257.198L200.085 256.905L200.036 255.906L194.122 256.199L194.171 257.198ZM205.999 256.611L211.913 256.318L211.863 255.32L205.949 255.613L205.999 256.611ZM217.826 256.025L223.74 255.732L223.691 254.733L217.777 255.026L217.826 256.025ZM229.654 255.439L235.568 255.146L235.518 254.147L229.605 254.44L229.654 255.439ZM241.482 254.853L247.395 254.56L247.346 253.561L241.432 253.854L241.482 254.853ZM253.309 254.267L259.223 253.974L259.173 252.975L253.26 253.268L253.309 254.267ZM265.137 253.68L271.051 253.387L271.001 252.389L265.087 252.682L265.137 253.68ZM276.964 253.094L282.878 252.801L282.829 251.802L276.915 252.095L276.964 253.094ZM288.792 252.508L294.706 252.215L294.656 251.216L288.742 251.509L288.792 252.508ZM300.62 251.922L306.533 251.629L306.484 250.63L300.57 250.923L300.62 251.922ZM312.447 251.336L318.361 251.042L318.311 250.044L312.398 250.337L312.447 251.336ZM324.275 250.749L330.189 250.456L330.139 249.458L324.225 249.751L324.275 250.749ZM336.102 250.163L342.016 249.87L341.967 248.871L336.053 249.164L336.102 250.163ZM347.93 249.577L353.844 249.284L353.794 248.285L347.88 248.578L347.93 249.577ZM359.757 248.991L365.671 248.698L365.622 247.699L359.708 247.992L359.757 248.991ZM371.585 248.405L377.499 248.111L377.449 247.113L371.536 247.406L371.585 248.405ZM383.413 247.818L389.326 247.525L389.277 246.526L383.363 246.82L383.413 247.818ZM395.24 247.232L401.154 246.939L401.105 245.94L395.191 246.233L395.24 247.232ZM407.068 246.646L410.025 246.499L409.975 245.501L407.018 245.647L407.068 246.646Z" fill="black"/>
<circle cx="421" cy="243" r="5" fill="black"/>
<circle cx="103" cy="65" r="5" fill="black"/>
<circle cx="66" cy="263" r="5" fill="black"/>
<defs>
<filter id="filter0_f_9_144" x="297" y="142" width="140" height="140" filterUnits="userSpaceOnUse" color-interpolation-filters="sRGB">
<feFlood flood-opacity="0" result="BackgroundImageFix"/>
<feBlend mode="normal" in="SourceGraphic" in2="BackgroundImageFix" result="shape"/>
<feGaussianBlur stdDeviation="5" result="effect1_foregroundBlur_9_144"/>
</filter>
<filter id="filter1_f_9_144" x="291" y="178" width="140" height="140" filterUnits="userSpaceOnUse" color-interpolation-filters="sRGB">
<feFlood flood-opacity="0" result="BackgroundImageFix"/>
<feBlend mode="normal" in="SourceGraphic" in2="BackgroundImageFix" result="shape"/>
<feGaussianBlur stdDeviation="5" result="effect1_foregroundBlur_9_144"/>
</filter>
<filter id="filter2_f_9_144" x="294" y="160" width="140" height="140" filterUnits="userSpaceOnUse" color-interpolation-filters="sRGB">
<feFlood flood-opacity="0" result="BackgroundImageFix"/>
<feBlend mode="normal" in="SourceGraphic" in2="BackgroundImageFix" result="shape"/>
<feGaussianBlur stdDeviation="5" result="effect1_foregroundBlur_9_144"/>
</filter>
</defs>
</svg>
