<?xml version="1.0" encoding="utf-8" standalone="no"?>
<!DOCTYPE svg PUBLIC "-//W3C//DTD SVG 1.1//EN"
  "http://www.w3.org/Graphics/SVG/1.1/DTD/svg11.dtd">
<svg xmlns:xlink="http://www.w3.org/1999/xlink" width="432pt" height="432pt" viewBox="0 0 432 432" xmlns="http://www.w3.org/2000/svg" version="1.1">
 <metadata>
  <rdf:RDF xmlns:dc="http://purl.org/dc/elements/1.1/" xmlns:cc="http://creativecommons.org/ns#" xmlns:rdf="http://www.w3.org/1999/02/22-rdf-syntax-ns#">
   <cc:Work>
    <dc:type rdf:resource="http://purl.org/dc/dcmitype/StillImage"/>
    <dc:date>2024-05-19T20:07:49.113887</dc:date>
    <dc:format>image/svg+xml</dc:format>
    <dc:creator>
     <cc:Agent>
      <dc:title>Matplotlib v3.7.5, https://matplotlib.org/</dc:title>
     </cc:Agent>
    </dc:creator>
   </cc:Work>
  </rdf:RDF>
 </metadata>
 <defs>
  <style type="text/css">*{stroke-linejoin: round; stroke-linecap: butt}</style>
 </defs>
 <g id="figure_1">
  <g id="patch_1">
   <path d="M 0 432 
L 432 432 
L 432 0 
L 0 0 
z
" style="fill: #ffffff"/>
  </g>
  <g id="axes_1">
   <g id="Quiver_1">
    <path clip-path="url(#p5dcd23cb3d)"/>
    <path clip-path="url(#p5dcd23cb3d)"/>
    <path clip-path="url(#p5dcd23cb3d)"/>
    <path clip-path="url(#p5dcd23cb3d)"/>
    <path clip-path="url(#p5dcd23cb3d)"/>
    <path clip-path="url(#p5dcd23cb3d)"/>
    <path clip-path="url(#p5dcd23cb3d)"/>
    <path clip-path="url(#p5dcd23cb3d)"/>
    <path clip-path="url(#p5dcd23cb3d)"/>
    <path clip-path="url(#p5dcd23cb3d)"/>
    <path clip-path="url(#p5dcd23cb3d)"/>
    <path d="M 197.957236 368.959375 
L 205.231469 368.411459 
L 204.770491 367.640385 
L 208.867271 368.540498 
L 204.951549 370.044135 
L 205.291821 369.212709 
L 198.017589 369.760625 
L 197.957236 368.959375 
" clip-path="url(#p5dcd23cb3d)"/>
    <path d="M 209.611756 369.492712 
L 209.479044 369.410762 
L 209.447856 369.758137 
L 208.366582 368.540498 
L 209.939557 368.961863 
L 209.642944 369.145337 
L 209.775657 369.227288 
L 209.611756 369.492712 
" clip-path="url(#p5dcd23cb3d)"/>
    <path clip-path="url(#p5dcd23cb3d)"/>
    <path clip-path="url(#p5dcd23cb3d)"/>
    <path clip-path="url(#p5dcd23cb3d)"/>
    <path clip-path="url(#p5dcd23cb3d)"/>
    <path clip-path="url(#p5dcd23cb3d)"/>
    <path d="M 280.061972 368.980026 
L 282.311779 369.752731 
L 282.192812 368.86228 
L 285.601039 371.307234 
L 281.409792 371.142122 
L 282.050772 370.512678 
L 279.800965 369.739974 
L 280.061972 368.980026 
" clip-path="url(#p5dcd23cb3d)"/>
    <path d="M 291.752451 369.745042 
L 288.680419 370.660078 
L 289.294839 371.315474 
L 285.10035 371.307234 
L 288.606707 369.00522 
L 288.451042 369.889993 
L 291.523074 368.974958 
L 291.752451 369.745042 
" clip-path="url(#p5dcd23cb3d)"/>
    <path clip-path="url(#p5dcd23cb3d)"/>
    <path clip-path="url(#p5dcd23cb3d)"/>
    <path clip-path="url(#p5dcd23cb3d)"/>
    <path clip-path="url(#p5dcd23cb3d)"/>
    <path clip-path="url(#p5dcd23cb3d)"/>
    <path clip-path="url(#p5dcd23cb3d)"/>
    <path clip-path="url(#p5dcd23cb3d)"/>
    <path clip-path="url(#p5dcd23cb3d)"/>
    <path clip-path="url(#p5dcd23cb3d)"/>
    <path clip-path="url(#p5dcd23cb3d)"/>
    <path clip-path="url(#p5dcd23cb3d)"/>
    <path clip-path="url(#p5dcd23cb3d)"/>
    <path clip-path="url(#p5dcd23cb3d)"/>
    <path clip-path="url(#p5dcd23cb3d)"/>
    <path clip-path="url(#p5dcd23cb3d)"/>
    <path clip-path="url(#p5dcd23cb3d)"/>
    <path clip-path="url(#p5dcd23cb3d)"/>
    <path clip-path="url(#p5dcd23cb3d)"/>
    <path clip-path="url(#p5dcd23cb3d)"/>
    <path d="M 209.449014 357.493009 
L 209.685236 357.248317 
L 208.95963 357.020566 
L 212.055924 355.28231 
L 210.427782 358.437896 
L 210.17462 357.72076 
L 209.938398 357.965453 
L 209.449014 357.493009 
" clip-path="url(#p5dcd23cb3d)"/>
    <path d="M 221.293645 357.514752 
L 221.508123 357.408397 
L 221.080934 357.085795 
L 223.544785 356.665678 
L 221.719066 358.372666 
L 221.720834 357.837354 
L 221.506355 357.943709 
L 221.293645 357.514752 
" clip-path="url(#p5dcd23cb3d)"/>
    <path d="M 232.747421 357.548617 
L 233.049608 356.948183 
L 232.151248 356.945828 
L 235.034006 353.898942 
L 234.304485 358.029512 
L 233.767353 357.309411 
L 233.465167 357.909845 
L 232.747421 357.548617 
" clip-path="url(#p5dcd23cb3d)"/>
    <path d="M 244.481488 357.501669 
L 245.065958 356.651274 
L 244.176197 356.527249 
L 247.445113 353.898942 
L 246.162793 357.89262 
L 245.728156 357.106397 
L 245.143687 357.956793 
L 244.481488 357.501669 
" clip-path="url(#p5dcd23cb3d)"/>
    <path d="M 256.118032 357.756267 
L 256.009712 356.150253 
L 255.235049 356.605174 
L 256.167238 352.515574 
L 257.640145 356.442959 
L 256.81141 356.096182 
L 256.91973 357.702195 
L 256.118032 357.756267 
" clip-path="url(#p5dcd23cb3d)"/>
    <path d="M 267.85497 357.573156 
L 268.64832 355.691346 
L 267.751836 355.749402 
L 270.423196 352.515574 
L 269.973067 356.685849 
L 269.388731 356.003495 
L 268.59538 357.885305 
L 267.85497 357.573156 
" clip-path="url(#p5dcd23cb3d)"/>
    <path d="M 280.094891 357.36221 
L 280.616784 357.594592 
L 280.576608 356.697128 
L 283.756548 359.432415 
L 279.596073 358.899252 
L 280.289939 358.328633 
L 279.768046 358.096251 
L 280.094891 357.36221 
" clip-path="url(#p5dcd23cb3d)"/>
    <path d="M 291.307395 357.500607 
L 292.857788 355.260252 
L 291.968431 355.133371 
L 295.245769 352.515574 
L 293.950632 356.505114 
L 293.518522 355.717499 
L 291.968129 357.957855 
L 291.307395 357.500607 
" clip-path="url(#p5dcd23cb3d)"/>
    <path d="M 302.980935 357.557317 
L 303.902037 355.611746 
L 303.003882 355.631038 
L 305.812385 352.515574 
L 305.182606 356.662523 
L 304.628278 355.955574 
L 303.707177 357.901145 
L 302.980935 357.557317 
" clip-path="url(#p5dcd23cb3d)"/>
    <path d="M 314.734407 357.481054 
L 316.596207 355.110879 
L 315.716146 354.930469 
L 319.145737 352.515574 
L 317.611801 356.419527 
L 317.228092 355.607232 
L 315.366292 357.977407 
L 314.734407 357.481054 
" clip-path="url(#p5dcd23cb3d)"/>
    <path d="M 326.539416 358.0672 
L 321.469548 354.808587 
L 321.373064 355.701753 
L 318.645048 352.515574 
L 322.676426 353.673935 
L 321.904002 354.132648 
L 326.97387 357.391261 
L 326.539416 358.0672 
" clip-path="url(#p5dcd23cb3d)"/>
    <path clip-path="url(#p5dcd23cb3d)"/>
    <path clip-path="url(#p5dcd23cb3d)"/>
    <path clip-path="url(#p5dcd23cb3d)"/>
    <path clip-path="url(#p5dcd23cb3d)"/>
    <path clip-path="url(#p5dcd23cb3d)"/>
    <path clip-path="url(#p5dcd23cb3d)"/>
    <path clip-path="url(#p5dcd23cb3d)"/>
    <path clip-path="url(#p5dcd23cb3d)"/>
    <path clip-path="url(#p5dcd23cb3d)"/>
    <path clip-path="url(#p5dcd23cb3d)"/>
    <path clip-path="url(#p5dcd23cb3d)"/>
    <path clip-path="url(#p5dcd23cb3d)"/>
    <path clip-path="url(#p5dcd23cb3d)"/>
    <path clip-path="url(#p5dcd23cb3d)"/>
    <path clip-path="url(#p5dcd23cb3d)"/>
    <path d="M 197.768468 345.761602 
L 201.005362 343.657761 
L 200.230614 343.202986 
L 204.256044 342.024123 
L 201.544279 345.224145 
L 201.44325 344.331481 
L 198.206357 346.435321 
L 197.768468 345.761602 
" clip-path="url(#p5dcd23cb3d)"/>
    <path d="M 209.466411 346.429744 
L 206.509603 344.40106 
L 206.386295 345.29092 
L 203.755355 342.024123 
L 207.750065 343.303225 
L 206.964193 343.738495 
L 209.921001 345.767179 
L 209.466411 346.429744 
" clip-path="url(#p5dcd23cb3d)"/>
    <path d="M 221.718556 346.343274 
L 219.610576 349.086228 
L 220.492501 349.257297 
L 217.088707 351.708419 
L 218.581165 347.788422 
L 218.973464 348.596603 
L 221.081444 345.853649 
L 221.718556 346.343274 
" clip-path="url(#p5dcd23cb3d)"/>
    <path d="M 233.113047 346.500165 
L 232.200011 346.515514 
L 232.61522 347.312167 
L 228.577928 346.174587 
L 232.574702 344.901948 
L 232.186505 345.712107 
L 233.099541 345.696758 
L 233.113047 346.500165 
" clip-path="url(#p5dcd23cb3d)"/>
    <path d="M 244.434893 346.23542 
L 243.688461 344.176967 
L 243.07003 344.828579 
L 242.833526 340.640755 
L 245.336199 344.006826 
L 244.44385 343.903049 
L 245.190282 345.961503 
L 244.434893 346.23542 
" clip-path="url(#p5dcd23cb3d)"/>
    <path d="M 256.920134 346.118638 
L 256.750076 349.500686 
L 257.572758 349.139785 
L 256.167238 353.091787 
L 255.16524 349.018729 
L 255.94757 349.460334 
L 256.117628 346.078285 
L 256.920134 346.118638 
" clip-path="url(#p5dcd23cb3d)"/>
    <path d="M 268.608449 345.977997 
L 269.722292 349.521851 
L 270.368377 348.897648 
L 270.423196 353.091787 
L 268.068729 349.620433 
L 268.955743 349.76278 
L 267.8419 346.218926 
L 268.608449 345.977997 
" clip-path="url(#p5dcd23cb3d)"/>
    <path d="M 280.333152 346.090644 
L 280.398895 349.468815 
L 281.194446 349.051496 
L 280.067566 353.091787 
L 278.784342 349.0984 
L 279.595527 349.484449 
L 279.529785 346.106279 
L 280.333152 346.090644 
" clip-path="url(#p5dcd23cb3d)"/>
    <path d="M 291.994805 345.914256 
L 293.944959 349.6942 
L 294.474838 348.968745 
L 295.245769 353.091787 
L 292.332583 350.073981 
L 293.230874 350.062611 
L 291.28072 346.282667 
L 291.994805 345.914256 
" clip-path="url(#p5dcd23cb3d)"/>
    <path d="M 303.72291 345.964743 
L 304.987773 349.548382 
L 305.611763 348.90209 
L 305.812385 353.091787 
L 303.338638 349.704401 
L 304.230065 349.815818 
L 302.965202 346.23218 
L 303.72291 345.964743 
" clip-path="url(#p5dcd23cb3d)"/>
    <path d="M 315.397037 345.895437 
L 317.665201 349.768578 
L 318.155551 349.015841 
L 319.145737 353.091787 
L 316.075428 350.23399 
L 316.971827 350.174627 
L 314.703662 346.301486 
L 315.397037 345.895437 
" clip-path="url(#p5dcd23cb3d)"/>
    <path d="M 327.018981 346.402748 
L 321.645963 351.035038 
L 322.474924 351.381274 
L 318.645048 353.091787 
L 320.9009 349.555555 
L 321.121289 350.426465 
L 326.494306 345.794175 
L 327.018981 346.402748 
" clip-path="url(#p5dcd23cb3d)"/>
    <path clip-path="url(#p5dcd23cb3d)"/>
    <path clip-path="url(#p5dcd23cb3d)"/>
    <path clip-path="url(#p5dcd23cb3d)"/>
    <path clip-path="url(#p5dcd23cb3d)"/>
    <path clip-path="url(#p5dcd23cb3d)"/>
    <path clip-path="url(#p5dcd23cb3d)"/>
    <path clip-path="url(#p5dcd23cb3d)"/>
    <path clip-path="url(#p5dcd23cb3d)"/>
    <path clip-path="url(#p5dcd23cb3d)"/>
    <path clip-path="url(#p5dcd23cb3d)"/>
    <path clip-path="url(#p5dcd23cb3d)"/>
    <path clip-path="url(#p5dcd23cb3d)"/>
    <path clip-path="url(#p5dcd23cb3d)"/>
    <path clip-path="url(#p5dcd23cb3d)"/>
    <path clip-path="url(#p5dcd23cb3d)"/>
    <path d="M 198.305616 334.222422 
L 202.366811 339.491235 
L 202.757947 338.682491 
L 204.256044 342.600336 
L 200.848727 340.154115 
L 201.730404 339.981777 
L 197.669209 334.712963 
L 198.305616 334.222422 
" clip-path="url(#p5dcd23cb3d)"/>
    <path d="M 209.67695 334.139246 
L 210.005396 334.12249 
L 209.643437 333.482353 
L 212.978169 334.300127 
L 209.743976 335.453031 
L 210.038909 334.779382 
L 209.710463 334.796139 
L 209.67695 334.139246 
" clip-path="url(#p5dcd23cb3d)"/>
    <path d="M 221.000628 334.511429 
L 220.770419 332.409344 
L 220.015412 332.89619 
L 220.776158 328.771257 
L 222.411645 332.633768 
L 221.569164 332.32187 
L 221.799372 334.423955 
L 221.000628 334.511429 
" clip-path="url(#p5dcd23cb3d)"/>
    <path d="M 233.433014 334.233887 
L 234.178724 335.275944 
L 234.598359 334.481613 
L 235.956252 338.450232 
L 232.638037 335.884445 
L 233.525283 335.743554 
L 232.779573 334.701498 
L 233.433014 334.233887 
" clip-path="url(#p5dcd23cb3d)"/>
    <path d="M 245.198115 334.580739 
L 244.236473 337.860266 
L 245.120575 337.700832 
L 242.833526 341.216968 
L 242.807409 337.022552 
L 243.465418 337.634173 
L 244.42706 334.354646 
L 245.198115 334.580739 
" clip-path="url(#p5dcd23cb3d)"/>
    <path d="M 256.172268 334.670844 
L 253.037407 329.322225 
L 252.547333 330.075142 
L 251.555651 325.999559 
L 254.627009 328.856229 
L 253.730632 328.915921 
L 256.865494 334.26454 
L 256.172268 334.670844 
" clip-path="url(#p5dcd23cb3d)"/>
    <path d="M 267.826908 334.520557 
L 266.811367 326.869728 
L 266.067698 327.373724 
L 266.733854 323.232463 
L 268.457298 327.056538 
L 267.6079 326.763999 
L 268.623442 334.414828 
L 267.826908 334.520557 
" clip-path="url(#p5dcd23cb3d)"/>
    <path clip-path="url(#p5dcd23cb3d)"/>
    <path clip-path="url(#p5dcd23cb3d)"/>
    <path clip-path="url(#p5dcd23cb3d)"/>
    <path clip-path="url(#p5dcd23cb3d)"/>
    <path clip-path="url(#p5dcd23cb3d)"/>
    <path clip-path="url(#p5dcd23cb3d)"/>
    <path clip-path="url(#p5dcd23cb3d)"/>
    <path clip-path="url(#p5dcd23cb3d)"/>
    <path clip-path="url(#p5dcd23cb3d)"/>
    <path clip-path="url(#p5dcd23cb3d)"/>
    <path clip-path="url(#p5dcd23cb3d)"/>
    <path clip-path="url(#p5dcd23cb3d)"/>
    <path clip-path="url(#p5dcd23cb3d)"/>
    <path clip-path="url(#p5dcd23cb3d)"/>
    <path clip-path="url(#p5dcd23cb3d)"/>
    <path clip-path="url(#p5dcd23cb3d)"/>
    <path clip-path="url(#p5dcd23cb3d)"/>
    <path clip-path="url(#p5dcd23cb3d)"/>
    <path clip-path="url(#p5dcd23cb3d)"/>
    <path clip-path="url(#p5dcd23cb3d)"/>
    <path clip-path="url(#p5dcd23cb3d)"/>
    <path clip-path="url(#p5dcd23cb3d)"/>
    <path d="M 221.799936 322.875158 
L 221.5221 325.781315 
L 222.360208 325.457849 
L 220.778049 329.342508 
L 219.960589 325.228439 
L 220.722227 325.704845 
L 221.000064 322.798688 
L 221.799936 322.875158 
" clip-path="url(#p5dcd23cb3d)"/>
    <path d="M 233.395467 323.115831 
L 232.29952 324.252117 
L 233.156775 324.520759 
L 229.500174 326.575772 
L 231.421733 322.847311 
L 231.721172 323.694301 
L 232.81712 322.558015 
L 233.395467 323.115831 
" clip-path="url(#p5dcd23cb3d)"/>
    <path d="M 245.033809 323.172292 
L 242.384084 324.920147 
L 243.161896 325.369663 
L 239.144544 326.575772 
L 241.834567 323.357451 
L 241.941641 324.24941 
L 244.591366 322.501554 
L 245.033809 323.172292 
" clip-path="url(#p5dcd23cb3d)"/>
    <path d="M 256.608233 322.445225 
L 257.342895 322.612812 
L 257.1299 321.740064 
L 260.778825 323.808676 
L 256.593789 324.090252 
L 257.164191 323.396208 
L 256.429529 323.228621 
L 256.608233 322.445225 
" clip-path="url(#p5dcd23cb3d)"/>
    <path d="M 268.32235 322.986055 
L 268.173218 323.08323 
L 268.516701 323.284319 
L 266.733854 323.808676 
L 267.933649 322.389527 
L 267.978867 322.784966 
L 268.128 322.687791 
L 268.32235 322.986055 
" clip-path="url(#p5dcd23cb3d)"/>
    <path d="M 279.663618 323.136368 
L 278.805374 322.368674 
L 278.569116 323.235414 
L 276.378225 319.658572 
L 280.176222 321.438748 
L 279.341076 321.769786 
L 280.199319 322.537479 
L 279.663618 323.136368 
" clip-path="url(#p5dcd23cb3d)"/>
    <path clip-path="url(#p5dcd23cb3d)"/>
    <path clip-path="url(#p5dcd23cb3d)"/>
    <path clip-path="url(#p5dcd23cb3d)"/>
    <path clip-path="url(#p5dcd23cb3d)"/>
    <path clip-path="url(#p5dcd23cb3d)"/>
    <path clip-path="url(#p5dcd23cb3d)"/>
    <path clip-path="url(#p5dcd23cb3d)"/>
    <path clip-path="url(#p5dcd23cb3d)"/>
    <path clip-path="url(#p5dcd23cb3d)"/>
    <path clip-path="url(#p5dcd23cb3d)"/>
    <path clip-path="url(#p5dcd23cb3d)"/>
    <path clip-path="url(#p5dcd23cb3d)"/>
    <path clip-path="url(#p5dcd23cb3d)"/>
    <path clip-path="url(#p5dcd23cb3d)"/>
    <path clip-path="url(#p5dcd23cb3d)"/>
    <path clip-path="url(#p5dcd23cb3d)"/>
    <path clip-path="url(#p5dcd23cb3d)"/>
    <path d="M 174.179308 311.276701 
L 173.216801 305.880485 
L 172.496313 306.417098 
L 172.977393 302.25028 
L 174.869419 305.993814 
L 174.007836 305.739391 
L 174.970343 311.135607 
L 174.179308 311.276701 
" clip-path="url(#p5dcd23cb3d)"/>
    <path d="M 185.88115 311.244051 
L 185.329964 305.426772 
L 184.567923 305.902534 
L 185.38886 301.789157 
L 186.967735 305.675152 
L 186.129901 305.350978 
L 186.681088 311.168257 
L 185.88115 311.244051 
" clip-path="url(#p5dcd23cb3d)"/>
    <path d="M 197.606887 311.07727 
L 199.948826 304.162761 
L 199.058891 304.28552 
L 201.489308 300.866911 
L 201.342047 305.058823 
L 200.709878 304.420529 
L 198.367939 311.335038 
L 197.606887 311.07727 
" clip-path="url(#p5dcd23cb3d)"/>
    <path clip-path="url(#p5dcd23cb3d)"/>
    <path clip-path="url(#p5dcd23cb3d)"/>
    <path clip-path="url(#p5dcd23cb3d)"/>
    <path clip-path="url(#p5dcd23cb3d)"/>
    <path clip-path="url(#p5dcd23cb3d)"/>
    <path d="M 267.88821 310.987371 
L 269.039432 309.214284 
L 268.146719 309.113683 
L 271.345441 306.400384 
L 270.168508 310.426379 
L 269.713361 309.651849 
L 268.56214 311.424937 
L 267.88821 310.987371 
" clip-path="url(#p5dcd23cb3d)"/>
    <path d="M 280.125623 310.854422 
L 280.785119 311.218461 
L 280.821696 310.320844 
L 283.756548 313.317585 
L 279.656768 312.431233 
L 280.396809 311.921925 
L 279.737314 311.557885 
L 280.125623 310.854422 
" clip-path="url(#p5dcd23cb3d)"/>
    <path d="M 291.572232 310.845353 
L 291.933032 310.779823 
L 291.441171 310.123752 
L 295.245769 310.550848 
L 291.834354 312.288556 
L 292.064093 311.501424 
L 291.703293 311.566955 
L 291.572232 310.845353 
" clip-path="url(#p5dcd23cb3d)"/>
    <path d="M 303.278525 310.959321 
L 303.525358 310.89379 
L 303.147464 310.465655 
L 305.812385 310.550848 
L 303.540648 311.946653 
L 303.656419 311.387456 
L 303.409586 311.452987 
L 303.278525 310.959321 
" clip-path="url(#p5dcd23cb3d)"/>
    <path d="M 315.023377 311.607007 
L 308.892404 311.19446 
L 309.239312 312.02314 
L 305.311696 310.550848 
L 309.40115 309.618019 
L 308.946351 310.392753 
L 315.077323 310.8053 
L 315.023377 311.607007 
" clip-path="url(#p5dcd23cb3d)"/>
    <path clip-path="url(#p5dcd23cb3d)"/>
    <path clip-path="url(#p5dcd23cb3d)"/>
    <path clip-path="url(#p5dcd23cb3d)"/>
    <path clip-path="url(#p5dcd23cb3d)"/>
    <path clip-path="url(#p5dcd23cb3d)"/>
    <path clip-path="url(#p5dcd23cb3d)"/>
    <path clip-path="url(#p5dcd23cb3d)"/>
    <path clip-path="url(#p5dcd23cb3d)"/>
    <path clip-path="url(#p5dcd23cb3d)"/>
    <path clip-path="url(#p5dcd23cb3d)"/>
    <path clip-path="url(#p5dcd23cb3d)"/>
    <path clip-path="url(#p5dcd23cb3d)"/>
    <path d="M 151.063284 299.186002 
L 156.541328 297.793864 
L 155.954037 297.114052 
L 160.14473 297.292661 
L 156.547761 299.450351 
L 156.739236 298.57263 
L 151.261192 299.964768 
L 151.063284 299.186002 
" clip-path="url(#p5dcd23cb3d)"/>
    <path d="M 162.640259 299.897834 
L 162.31781 299.669561 
L 162.183714 300.542732 
L 159.644041 297.292661 
L 163.553349 298.608037 
L 162.774355 299.024663 
L 163.096804 299.252936 
L 162.640259 299.897834 
" clip-path="url(#p5dcd23cb3d)"/>
    <path d="M 174.899936 299.735128 
L 174.740193 300.060239 
L 175.550158 300.054614 
L 172.977393 302.826493 
L 173.599493 299.096155 
L 174.089971 299.740752 
L 174.249714 299.415641 
L 174.899936 299.735128 
" clip-path="url(#p5dcd23cb3d)"/>
    <path d="M 186.560117 299.664611 
L 186.470892 299.943609 
L 187.118115 299.843062 
L 185.38886 302.36537 
L 185.444123 299.307707 
L 185.912894 299.765157 
L 186.00212 299.486159 
L 186.560117 299.664611 
" clip-path="url(#p5dcd23cb3d)"/>
    <path d="M 198.174187 299.225195 
L 198.524376 299.411969 
L 198.547735 298.524816 
L 201.489308 301.443125 
L 197.42709 300.625953 
L 198.150828 300.112348 
L 197.800639 299.925574 
L 198.174187 299.225195 
" clip-path="url(#p5dcd23cb3d)"/>
    <path d="M 209.777989 299.968205 
L 204.608281 301.077403 
L 205.169666 301.778761 
L 200.988619 301.443125 
L 204.663972 299.421841 
L 204.439717 300.291763 
L 209.609424 299.182565 
L 209.777989 299.968205 
" clip-path="url(#p5dcd23cb3d)"/>
    <path clip-path="url(#p5dcd23cb3d)"/>
    <path clip-path="url(#p5dcd23cb3d)"/>
    <path clip-path="url(#p5dcd23cb3d)"/>
    <path clip-path="url(#p5dcd23cb3d)"/>
    <path d="M 268.550286 299.355583 
L 268.770088 299.680693 
L 269.200507 298.915978 
L 270.423196 302.826493 
L 267.249842 300.234791 
L 268.119866 300.120298 
L 267.900064 299.795187 
L 268.550286 299.355583 
" clip-path="url(#p5dcd23cb3d)"/>
    <path d="M 280.055585 299.957492 
L 273.485592 302.091556 
L 274.115932 302.731655 
L 269.922506 302.826493 
L 273.371235 300.439009 
L 273.23736 301.32734 
L 279.807352 299.193277 
L 280.055585 299.957492 
" clip-path="url(#p5dcd23cb3d)"/>
    <path d="M 292.021252 299.455607 
L 294.551259 307.555876 
L 295.198461 306.932831 
L 295.245769 311.127062 
L 292.897522 307.651497 
L 293.78428 307.795432 
L 291.254272 299.695162 
L 292.021252 299.455607 
" clip-path="url(#p5dcd23cb3d)"/>
    <path d="M 303.736947 299.491433 
L 305.44971 307.507093 
L 306.15154 306.946298 
L 305.812385 311.127062 
L 303.794195 307.450009 
L 304.663928 307.674996 
L 302.951165 299.659336 
L 303.736947 299.491433 
" clip-path="url(#p5dcd23cb3d)"/>
    <path clip-path="url(#p5dcd23cb3d)"/>
    <path clip-path="url(#p5dcd23cb3d)"/>
    <path clip-path="url(#p5dcd23cb3d)"/>
    <path clip-path="url(#p5dcd23cb3d)"/>
    <path clip-path="url(#p5dcd23cb3d)"/>
    <path clip-path="url(#p5dcd23cb3d)"/>
    <path clip-path="url(#p5dcd23cb3d)"/>
    <path clip-path="url(#p5dcd23cb3d)"/>
    <path clip-path="url(#p5dcd23cb3d)"/>
    <path clip-path="url(#p5dcd23cb3d)"/>
    <path clip-path="url(#p5dcd23cb3d)"/>
    <path clip-path="url(#p5dcd23cb3d)"/>
    <path clip-path="url(#p5dcd23cb3d)"/>
    <path d="M 151.324607 287.784199 
L 151.485024 287.946568 
L 151.649345 287.463365 
L 152.766407 289.568306 
L 150.675131 288.425866 
L 151.160286 288.267401 
L 150.999869 288.105032 
L 151.324607 287.784199 
" clip-path="url(#p5dcd23cb3d)"/>
    <path d="M 162.745346 287.562207 
L 167.146482 286.144464 
L 166.517702 285.502832 
L 170.711346 285.418201 
L 167.256816 287.797284 
L 167.392854 286.909281 
L 162.991717 288.327024 
L 162.745346 287.562207 
" clip-path="url(#p5dcd23cb3d)"/>
    <path d="M 174.373541 288.292316 
L 173.138681 287.577456 
L 173.083814 288.474142 
L 170.210657 285.418201 
L 174.291517 286.387937 
L 173.541249 286.882055 
L 174.776109 287.596914 
L 174.373541 288.292316 
" clip-path="url(#p5dcd23cb3d)"/>
    <path d="M 185.928803 288.137707 
L 184.007273 284.631674 
L 183.495732 285.370174 
L 182.621763 281.267737 
L 185.609629 284.211623 
L 184.711905 284.245491 
L 186.633435 287.751524 
L 185.928803 288.137707 
" clip-path="url(#p5dcd23cb3d)"/>
    <path d="M 197.587746 287.985578 
L 196.846722 280.755592 
L 196.088353 281.237184 
L 196.877721 277.117632 
L 198.48635 280.991406 
L 197.646055 280.673666 
L 198.387079 287.903652 
L 197.587746 287.985578 
" clip-path="url(#p5dcd23cb3d)"/>
    <path d="M 209.994412 287.708394 
L 210.230634 288.009099 
L 210.595824 287.23595 
L 212.055924 290.951674 
L 208.791589 288.653281 
L 209.629222 288.481543 
L 209.393 288.180837 
L 209.994412 287.708394 
" clip-path="url(#p5dcd23cb3d)"/>
    <path d="M 221.008572 288.035143 
L 220.279124 284.881116 
L 219.586795 285.453599 
L 219.855803 281.267737 
L 221.935363 284.910434 
L 221.06198 284.700061 
L 221.791428 287.854088 
L 221.008572 288.035143 
" clip-path="url(#p5dcd23cb3d)"/>
    <path clip-path="url(#p5dcd23cb3d)"/>
    <path clip-path="url(#p5dcd23cb3d)"/>
    <path d="M 256.579071 287.54739 
L 263.719701 288.629373 
L 263.442854 287.774732 
L 267.234543 289.568306 
L 263.081717 290.158087 
L 263.599322 289.423825 
L 256.458692 288.341841 
L 256.579071 287.54739 
" clip-path="url(#p5dcd23cb3d)"/>
    <path d="M 268.387544 288.093747 
L 268.238412 288.256116 
L 268.712282 288.392012 
L 266.733854 289.568306 
L 267.738068 287.497219 
L 267.913674 287.957852 
L 268.062806 287.795483 
L 268.387544 288.093747 
" clip-path="url(#p5dcd23cb3d)"/>
    <path clip-path="url(#p5dcd23cb3d)"/>
    <path clip-path="url(#p5dcd23cb3d)"/>
    <path clip-path="url(#p5dcd23cb3d)"/>
    <path clip-path="url(#p5dcd23cb3d)"/>
    <path clip-path="url(#p5dcd23cb3d)"/>
    <path clip-path="url(#p5dcd23cb3d)"/>
    <path clip-path="url(#p5dcd23cb3d)"/>
    <path clip-path="url(#p5dcd23cb3d)"/>
    <path clip-path="url(#p5dcd23cb3d)"/>
    <path clip-path="url(#p5dcd23cb3d)"/>
    <path clip-path="url(#p5dcd23cb3d)"/>
    <path clip-path="url(#p5dcd23cb3d)"/>
    <path clip-path="url(#p5dcd23cb3d)"/>
    <path clip-path="url(#p5dcd23cb3d)"/>
    <path clip-path="url(#p5dcd23cb3d)"/>
    <path clip-path="url(#p5dcd23cb3d)"/>
    <path d="M 151.438575 276.245654 
L 151.506767 276.521991 
L 151.991248 276.109269 
L 151.844161 279.077214 
L 150.333227 276.518423 
L 150.954093 276.658375 
L 150.885901 276.382038 
L 151.438575 276.245654 
" clip-path="url(#p5dcd23cb3d)"/>
    <path d="M 163.144868 276.451846 
L 163.006868 276.728183 
L 163.697542 276.727846 
L 161.488532 279.077214 
L 162.039521 275.899846 
L 162.454195 276.452183 
L 162.592195 276.175846 
L 163.144868 276.451846 
" clip-path="url(#p5dcd23cb3d)"/>
    <path d="M 174.793062 275.976528 
L 180.304822 279.542501 
L 180.403977 278.649627 
L 183.122453 281.843951 
L 179.094557 280.673538 
L 179.868349 280.217138 
L 174.356588 276.651165 
L 174.793062 275.976528 
" clip-path="url(#p5dcd23cb3d)"/>
    <path d="M 186.616167 276.535553 
L 184.952171 279.050223 
L 185.843974 279.158588 
L 182.621763 281.843951 
L 183.833685 277.828349 
L 184.282074 278.60681 
L 185.946071 276.09214 
L 186.616167 276.535553 
" clip-path="url(#p5dcd23cb3d)"/>
    <path d="M 198.125413 276.424815 
L 198.014443 276.562815 
L 198.401413 276.646754 
L 196.877721 277.693846 
L 197.573413 275.980939 
L 197.738443 276.340877 
L 197.849413 276.202877 
L 198.125413 276.424815 
" clip-path="url(#p5dcd23cb3d)"/>
    <path d="M 209.878676 275.957199 
L 217.331638 279.822573 
L 217.344931 278.924309 
L 220.356492 281.843951 
L 216.235111 281.064192 
L 216.961698 280.535867 
L 209.508736 276.670493 
L 209.878676 275.957199 
" clip-path="url(#p5dcd23cb3d)"/>
    <path d="M 221.786957 276.421898 
L 221.215227 278.469387 
L 222.097194 278.298534 
L 219.855803 281.843951 
L 219.77545 277.650223 
L 220.441313 278.253284 
L 221.013043 276.205794 
L 221.786957 276.421898 
" clip-path="url(#p5dcd23cb3d)"/>
    <path d="M 232.810752 276.585998 
L 228.887259 272.325301 
L 228.568328 273.165145 
L 226.733438 269.393277 
L 230.341576 271.532237 
L 229.478342 271.780998 
L 233.401835 276.041695 
L 232.810752 276.585998 
" clip-path="url(#p5dcd23cb3d)"/>
    <path clip-path="url(#p5dcd23cb3d)"/>
    <path d="M 256.241835 276.072337 
L 256.483344 275.79529 
L 255.687742 275.589318 
L 258.933974 273.543382 
L 257.35002 277.038374 
L 257.037437 276.278309 
L 256.795928 276.555355 
L 256.241835 276.072337 
" clip-path="url(#p5dcd23cb3d)"/>
    <path d="M 268.115797 276.700431 
L 261.803167 274.914369 
L 261.970995 275.796916 
L 258.433285 273.543382 
L 262.627264 273.47741 
L 262.021923 274.1412 
L 268.334553 275.927262 
L 268.115797 276.700431 
" clip-path="url(#p5dcd23cb3d)"/>
    <path clip-path="url(#p5dcd23cb3d)"/>
    <path clip-path="url(#p5dcd23cb3d)"/>
    <path clip-path="url(#p5dcd23cb3d)"/>
    <path clip-path="url(#p5dcd23cb3d)"/>
    <path clip-path="url(#p5dcd23cb3d)"/>
    <path clip-path="url(#p5dcd23cb3d)"/>
    <path clip-path="url(#p5dcd23cb3d)"/>
    <path clip-path="url(#p5dcd23cb3d)"/>
    <path clip-path="url(#p5dcd23cb3d)"/>
    <path clip-path="url(#p5dcd23cb3d)"/>
    <path clip-path="url(#p5dcd23cb3d)"/>
    <path clip-path="url(#p5dcd23cb3d)"/>
    <path clip-path="url(#p5dcd23cb3d)"/>
    <path clip-path="url(#p5dcd23cb3d)"/>
    <path clip-path="url(#p5dcd23cb3d)"/>
    <path clip-path="url(#p5dcd23cb3d)"/>
    <path d="M 151.275869 264.614885 
L 151.344061 264.728516 
L 151.503131 264.4785 
L 151.844161 265.819386 
L 150.821345 264.887654 
L 151.116799 264.8649 
L 151.048607 264.751269 
L 151.275869 264.614885 
" clip-path="url(#p5dcd23cb3d)"/>
    <path d="M 162.807456 265.080167 
L 155.778457 263.999059 
L 156.053397 264.854315 
L 152.265717 263.05229 
L 156.419849 262.471772 
L 155.900608 263.204877 
L 162.929607 264.285986 
L 162.807456 265.080167 
" clip-path="url(#p5dcd23cb3d)"/>
    <path clip-path="url(#p5dcd23cb3d)"/>
    <path clip-path="url(#p5dcd23cb3d)"/>
    <path d="M 197.975166 264.281504 
L 202.474129 264.144303 
L 202.048063 263.353403 
L 206.100535 264.435659 
L 202.121541 265.762843 
L 202.498622 264.94745 
L 197.999659 265.08465 
L 197.975166 264.281504 
" clip-path="url(#p5dcd23cb3d)"/>
    <path d="M 209.66947 265.084105 
L 209.184864 265.054817 
L 209.537419 265.881111 
L 205.599846 264.435659 
L 209.682839 263.474941 
L 209.233337 264.252761 
L 209.717943 264.282049 
L 209.66947 265.084105 
" clip-path="url(#p5dcd23cb3d)"/>
    <path d="M 221.669768 264.385359 
L 224.82443 267.243858 
L 225.066248 266.378653 
L 227.234127 269.969491 
L 223.447639 268.164963 
L 224.284894 267.839295 
L 221.130232 264.980795 
L 221.669768 264.385359 
" clip-path="url(#p5dcd23cb3d)"/>
    <path d="M 232.714634 264.593558 
L 232.914073 263.720975 
L 232.041235 263.933598 
L 234.111401 260.285554 
L 234.391194 264.470709 
L 233.697393 263.900012 
L 233.497954 264.772596 
L 232.714634 264.593558 
" clip-path="url(#p5dcd23cb3d)"/>
    <path d="M 244.563873 264.367558 
L 250.812803 259.441724 
L 249.999855 259.059399 
L 253.901191 257.518818 
L 251.492139 260.952515 
L 251.310231 260.072763 
L 245.061301 264.998596 
L 244.563873 264.367558 
" clip-path="url(#p5dcd23cb3d)"/>
    <path d="M 256.150505 264.84342 
L 254.475211 260.994549 
L 253.898801 261.683612 
L 253.400502 257.518818 
L 256.10906 260.721554 
L 255.211964 260.673864 
L 256.887258 264.522734 
L 256.150505 264.84342 
" clip-path="url(#p5dcd23cb3d)"/>
    <path clip-path="url(#p5dcd23cb3d)"/>
    <path clip-path="url(#p5dcd23cb3d)"/>
    <path clip-path="url(#p5dcd23cb3d)"/>
    <path clip-path="url(#p5dcd23cb3d)"/>
    <path clip-path="url(#p5dcd23cb3d)"/>
    <path clip-path="url(#p5dcd23cb3d)"/>
    <path clip-path="url(#p5dcd23cb3d)"/>
    <path clip-path="url(#p5dcd23cb3d)"/>
    <path clip-path="url(#p5dcd23cb3d)"/>
    <path d="M 373.453855 264.30224 
L 374.879762 263.823126 
L 374.242999 263.189417 
L 378.435254 263.05229 
L 375.01078 265.474435 
L 375.13569 264.584799 
L 373.709782 265.063913 
L 373.453855 264.30224 
" clip-path="url(#p5dcd23cb3d)"/>
    <path clip-path="url(#p5dcd23cb3d)"/>
    <path clip-path="url(#p5dcd23cb3d)"/>
    <path clip-path="url(#p5dcd23cb3d)"/>
    <path clip-path="url(#p5dcd23cb3d)"/>
    <path clip-path="url(#p5dcd23cb3d)"/>
    <path clip-path="url(#p5dcd23cb3d)"/>
    <path clip-path="url(#p5dcd23cb3d)"/>
    <path d="M 151.559455 252.992059 
L 152.621384 259.993304 
L 153.355569 259.47559 
L 152.766407 263.628504 
L 150.972268 259.837082 
L 151.826951 260.113801 
L 150.765021 253.112556 
L 151.559455 252.992059 
" clip-path="url(#p5dcd23cb3d)"/>
    <path d="M 162.493378 252.908535 
L 163.508403 250.259979 
L 162.614322 250.347587 
L 165.177513 247.027367 
L 164.865246 251.210224 
L 164.258711 250.547524 
L 163.243685 253.196081 
L 162.493378 252.908535 
" clip-path="url(#p5dcd23cb3d)"/>
    <path d="M 174.365929 253.395489 
L 167.556564 249.250609 
L 167.481954 250.145869 
L 164.676824 247.027367 
L 168.735329 248.086778 
L 167.974355 248.564246 
L 174.783721 252.709126 
L 174.365929 253.395489 
" clip-path="url(#p5dcd23cb3d)"/>
    <path clip-path="url(#p5dcd23cb3d)"/>
    <path clip-path="url(#p5dcd23cb3d)"/>
    <path d="M 209.950909 252.743669 
L 213.224355 255.471572 
L 213.430121 254.597092 
L 215.744906 258.095031 
L 211.886907 256.448926 
L 212.709951 256.08885 
L 209.436504 253.360947 
L 209.950909 252.743669 
" clip-path="url(#p5dcd23cb3d)"/>
    <path d="M 221.654596 253.3631 
L 218.295943 256.114457 
L 219.115928 256.481445 
L 215.244216 258.095031 
L 217.58835 254.616692 
L 217.786751 255.492873 
L 221.145404 252.741515 
L 221.654596 253.3631 
" clip-path="url(#p5dcd23cb3d)"/>
    <path d="M 232.927133 252.692707 
L 236.229669 251.04731 
L 235.511746 250.507271 
L 239.645233 249.794463 
L 236.586712 252.664873 
L 236.587991 251.766511 
L 233.285455 253.411908 
L 232.927133 252.692707 
" clip-path="url(#p5dcd23cb3d)"/>
    <path d="M 244.486803 253.065729 
L 244.473382 252.739944 
L 243.835234 253.092571 
L 244.678377 249.794463 
L 245.789941 253.012044 
L 245.124951 252.713102 
L 245.138372 253.038887 
L 244.486803 253.065729 
" clip-path="url(#p5dcd23cb3d)"/>
    <path d="M 256.860584 253.263614 
L 255.643961 255.231013 
L 256.538672 255.311922 
L 253.400502 258.095031 
L 254.488456 254.044085 
L 254.960555 254.8084 
L 256.177178 252.841001 
L 256.860584 253.263614 
" clip-path="url(#p5dcd23cb3d)"/>
    <path clip-path="url(#p5dcd23cb3d)"/>
    <path clip-path="url(#p5dcd23cb3d)"/>
    <path clip-path="url(#p5dcd23cb3d)"/>
    <path clip-path="url(#p5dcd23cb3d)"/>
    <path clip-path="url(#p5dcd23cb3d)"/>
    <path clip-path="url(#p5dcd23cb3d)"/>
    <path clip-path="url(#p5dcd23cb3d)"/>
    <path clip-path="url(#p5dcd23cb3d)"/>
    <path d="M 361.496943 252.917819 
L 362.590678 249.838988 
L 361.699026 249.948592 
L 364.179657 246.566244 
L 363.970515 250.755524 
L 363.347841 250.107965 
L 362.254106 253.186796 
L 361.496943 252.917819 
" clip-path="url(#p5dcd23cb3d)"/>
    <path d="M 373.532707 253.304796 
L 373.280219 253.255686 
L 373.434486 253.809774 
L 371.056931 252.561199 
L 373.729151 252.294842 
L 373.37844 252.750708 
L 373.630929 252.799819 
L 373.532707 253.304796 
" clip-path="url(#p5dcd23cb3d)"/>
    <path clip-path="url(#p5dcd23cb3d)"/>
    <path clip-path="url(#p5dcd23cb3d)"/>
    <path clip-path="url(#p5dcd23cb3d)"/>
    <path clip-path="url(#p5dcd23cb3d)"/>
    <path clip-path="url(#p5dcd23cb3d)"/>
    <path clip-path="url(#p5dcd23cb3d)"/>
    <path clip-path="url(#p5dcd23cb3d)"/>
    <path clip-path="url(#p5dcd23cb3d)"/>
    <path d="M 163.244897 241.280967 
L 164.288733 244.075722 
L 164.900892 243.418214 
L 165.177513 247.60358 
L 162.642701 244.261644 
L 163.536003 244.356866 
L 162.492166 241.56211 
L 163.244897 241.280967 
" clip-path="url(#p5dcd23cb3d)"/>
    <path d="M 174.17639 241.369959 
L 174.881843 235.920509 
L 174.033393 236.215787 
L 175.744489 232.386171 
L 176.424005 236.525261 
L 175.678713 236.023667 
L 174.97326 241.473117 
L 174.17639 241.369959 
" clip-path="url(#p5dcd23cb3d)"/>
    <path clip-path="url(#p5dcd23cb3d)"/>
    <path clip-path="url(#p5dcd23cb3d)"/>
    <path d="M 209.816258 241.038926 
L 217.035532 243.35127 
L 216.898022 242.463493 
L 220.356492 244.836844 
L 216.162714 244.759168 
L 216.790429 244.116495 
L 209.571155 241.804151 
L 209.816258 241.038926 
" clip-path="url(#p5dcd23cb3d)"/>
    <path d="M 221.741531 241.575958 
L 221.587111 241.917489 
L 222.424592 241.884797 
L 219.855803 244.836844 
L 220.375408 240.958279 
L 220.90405 241.608649 
L 221.058469 241.267119 
L 221.741531 241.575958 
" clip-path="url(#p5dcd23cb3d)"/>
    <path d="M 232.948792 241.791139 
L 228.057488 239.706757 
L 228.112085 240.603459 
L 224.888587 237.919643 
L 229.057094 238.385858 
L 228.372491 238.967557 
L 233.263795 241.051938 
L 232.948792 241.791139 
" clip-path="url(#p5dcd23cb3d)"/>
    <path d="M 245.154118 241.43496 
L 245.140697 241.77649 
L 245.837179 241.461802 
L 244.678377 244.836844 
L 243.787996 241.381275 
L 244.457636 241.749648 
L 244.471057 241.408117 
L 245.154118 241.43496 
" clip-path="url(#p5dcd23cb3d)"/>
    <path d="M 256.180233 241.637706 
L 255.007359 239.800279 
L 254.54623 240.571262 
L 253.400502 236.536275 
L 256.578121 239.274258 
L 255.684656 239.367944 
L 256.85753 241.205371 
L 256.180233 241.637706 
" clip-path="url(#p5dcd23cb3d)"/>
    <path d="M 267.853275 241.573531 
L 264.963151 234.501892 
L 264.371344 235.177777 
L 263.967118 231.002802 
L 266.602742 234.265822 
L 265.70695 234.197907 
L 268.597075 241.269546 
L 267.853275 241.573531 
" clip-path="url(#p5dcd23cb3d)"/>
    <path clip-path="url(#p5dcd23cb3d)"/>
    <path clip-path="url(#p5dcd23cb3d)"/>
    <path clip-path="url(#p5dcd23cb3d)"/>
    <path clip-path="url(#p5dcd23cb3d)"/>
    <path clip-path="url(#p5dcd23cb3d)"/>
    <path clip-path="url(#p5dcd23cb3d)"/>
    <path d="M 350.267499 241.031982 
L 354.816526 242.179504 
L 354.623506 241.302122 
L 358.224268 243.453476 
L 354.033896 243.639463 
L 354.619989 242.958618 
L 350.070962 241.811095 
L 350.267499 241.031982 
" clip-path="url(#p5dcd23cb3d)"/>
    <path d="M 362.052129 241.782401 
L 361.14795 242.224901 
L 361.862021 242.770023 
L 357.723579 243.453476 
L 360.802396 240.604845 
L 360.794741 241.503175 
L 361.69892 241.060676 
L 362.052129 241.782401 
" clip-path="url(#p5dcd23cb3d)"/>
    <path d="M 373.782791 241.769419 
L 367.010869 245.681587 
L 367.760695 246.176377 
L 363.678968 247.142457 
L 366.554861 244.089091 
L 366.608924 244.985825 
L 373.380846 241.073657 
L 373.782791 241.769419 
" clip-path="url(#p5dcd23cb3d)"/>
    <path clip-path="url(#p5dcd23cb3d)"/>
    <path clip-path="url(#p5dcd23cb3d)"/>
    <path clip-path="url(#p5dcd23cb3d)"/>
    <path clip-path="url(#p5dcd23cb3d)"/>
    <path clip-path="url(#p5dcd23cb3d)"/>
    <path clip-path="url(#p5dcd23cb3d)"/>
    <path clip-path="url(#p5dcd23cb3d)"/>
    <path clip-path="url(#p5dcd23cb3d)"/>
    <path clip-path="url(#p5dcd23cb3d)"/>
    <path d="M 174.891987 229.673803 
L 175.008953 229.990964 
L 175.52631 229.43987 
L 175.744489 232.962384 
L 173.623341 230.141668 
L 174.37463 230.224897 
L 174.257664 229.907736 
L 174.891987 229.673803 
" clip-path="url(#p5dcd23cb3d)"/>
    <path d="M 185.935569 229.995723 
L 182.27631 223.826257 
L 181.790163 224.581715 
L 180.777273 220.511351 
L 183.863464 223.35199 
L 182.96741 223.416349 
L 186.626669 229.585815 
L 185.935569 229.995723 
" clip-path="url(#p5dcd23cb3d)"/>
    <path clip-path="url(#p5dcd23cb3d)"/>
    <path clip-path="url(#p5dcd23cb3d)"/>
    <path d="M 221.765114 229.623129 
L 224.250471 235.036143 
L 224.813058 234.33575 
L 225.394117 238.489806 
L 222.622376 235.34159 
L 223.520244 235.371423 
L 221.034886 229.958409 
L 221.765114 229.623129 
" clip-path="url(#p5dcd23cb3d)"/>
    <path d="M 233.285118 230.059157 
L 233.016731 230.237981 
L 233.642768 230.595932 
L 230.422419 231.579016 
L 232.56982 228.985607 
L 232.659082 229.701206 
L 232.927469 229.522382 
L 233.285118 230.059157 
" clip-path="url(#p5dcd23cb3d)"/>
    <path d="M 245.064631 229.477903 
L 251.337437 234.531234 
L 251.528656 233.653458 
L 253.901191 237.112489 
L 250.016398 235.530657 
L 250.83335 235.156967 
L 244.560544 230.103636 
L 245.064631 229.477903 
" clip-path="url(#p5dcd23cb3d)"/>
    <path d="M 256.888514 229.948195 
L 255.18707 233.943165 
L 256.083761 233.888383 
L 253.40061 237.112435 
L 253.865964 232.943831 
L 254.447805 233.628314 
L 256.149248 229.633344 
L 256.888514 229.948195 
" clip-path="url(#p5dcd23cb3d)"/>
    <path d="M 268.380739 230.161189 
L 267.45646 230.549356 
L 268.138009 231.134632 
L 263.967118 231.579016 
L 267.204623 228.912113 
L 267.145332 229.808517 
L 268.06961 229.420349 
L 268.380739 230.161189 
" clip-path="url(#p5dcd23cb3d)"/>
    <path d="M 279.60941 229.550584 
L 281.272818 227.32016 
L 280.388515 227.161848 
L 283.756548 224.661815 
L 282.320868 228.602962 
L 281.916936 227.800532 
L 280.253527 230.030955 
L 279.60941 229.550584 
" clip-path="url(#p5dcd23cb3d)"/>
    <path d="M 291.428066 230.133462 
L 286.130399 226.891777 
L 286.053699 227.78686 
L 283.255859 224.661815 
L 287.311878 225.730702 
L 286.549792 226.206391 
L 291.847459 229.448076 
L 291.428066 230.133462 
" clip-path="url(#p5dcd23cb3d)"/>
    <path clip-path="url(#p5dcd23cb3d)"/>
    <path clip-path="url(#p5dcd23cb3d)"/>
    <path clip-path="url(#p5dcd23cb3d)"/>
    <path d="M 338.311368 229.418697 
L 344.157429 227.037228 
L 343.48222 226.444652 
L 347.657652 226.045184 
L 344.391631 228.677087 
L 344.460567 227.781374 
L 338.614506 230.162842 
L 338.311368 229.418697 
" clip-path="url(#p5dcd23cb3d)"/>
    <path d="M 350.348055 229.538649 
L 350.600176 229.717473 
L 350.705705 229.034408 
L 352.690436 231.579016 
L 349.632757 230.547131 
L 350.242527 230.221714 
L 349.990406 230.04289 
L 350.348055 229.538649 
" clip-path="url(#p5dcd23cb3d)"/>
    <path d="M 361.948467 230.185852 
L 355.818435 231.317616 
L 356.359403 232.034839 
L 352.189746 231.579016 
L 355.921747 229.664342 
L 355.67255 230.52745 
L 361.802582 229.395686 
L 361.948467 230.185852 
" clip-path="url(#p5dcd23cb3d)"/>
    <path clip-path="url(#p5dcd23cb3d)"/>
    <path clip-path="url(#p5dcd23cb3d)"/>
    <path clip-path="url(#p5dcd23cb3d)"/>
    <path clip-path="url(#p5dcd23cb3d)"/>
    <path clip-path="url(#p5dcd23cb3d)"/>
    <path clip-path="url(#p5dcd23cb3d)"/>
    <path d="M 127.35473 218.08618 
L 128.729027 210.733983 
L 127.865367 210.981264 
L 129.788324 207.253523 
L 130.234887 211.424182 
L 129.518867 210.881623 
L 128.14457 218.23382 
L 127.35473 218.08618 
" clip-path="url(#p5dcd23cb3d)"/>
    <path d="M 139.065014 218.252654 
L 138.953405 217.781749 
L 138.264199 218.357987 
L 138.510449 214.170724 
L 140.609779 217.802063 
L 139.735265 217.596441 
L 139.846874 218.067346 
L 139.065014 218.252654 
" clip-path="url(#p5dcd23cb3d)"/>
    <path d="M 150.76331 218.184032 
L 150.739278 217.785105 
L 149.965455 218.232097 
L 150.921916 214.170724 
L 152.359021 218.087903 
L 151.537133 217.73704 
L 151.561165 218.135968 
L 150.76331 218.184032 
" clip-path="url(#p5dcd23cb3d)"/>
    <path d="M 162.469604 218.205775 
L 162.423828 217.806848 
L 161.671749 218.297326 
L 162.410777 214.170724 
L 164.065314 218.022674 
L 163.221684 217.715297 
L 163.267459 218.114225 
L 162.469604 218.205775 
" clip-path="url(#p5dcd23cb3d)"/>
    <path d="M 174.236526 218.376713 
L 172.745021 216.048404 
L 172.285135 216.82013 
L 171.132902 212.786996 
L 174.314932 215.519851 
L 173.42162 215.614978 
L 174.913125 217.943287 
L 174.236526 218.376713 
" clip-path="url(#p5dcd23cb3d)"/>
    <path d="M 185.901781 218.027661 
L 186.585203 216.068699 
L 185.694187 216.183358 
L 188.155596 212.786996 
L 187.970215 216.977395 
L 187.343879 216.333378 
L 186.660457 218.292339 
L 185.901781 218.027661 
" clip-path="url(#p5dcd23cb3d)"/>
    <path d="M 197.604886 218.037181 
L 200.001284 210.573492 
L 199.113412 210.710379 
L 201.489185 207.253573 
L 201.40857 211.447295 
L 200.766337 210.81913 
L 198.369939 218.282819 
L 197.604886 218.037181 
" clip-path="url(#p5dcd23cb3d)"/>
    <path clip-path="url(#p5dcd23cb3d)"/>
    <path clip-path="url(#p5dcd23cb3d)"/>
    <path d="M 233.117793 217.758405 
L 235.120129 217.815739 
L 234.741532 217.001049 
L 238.722988 218.320828 
L 234.672536 219.410622 
L 235.09713 218.61893 
L 233.094794 218.561595 
L 233.117793 217.758405 
" clip-path="url(#p5dcd23cb3d)"/>
    <path d="M 244.822389 218.56164 
L 241.846864 218.634255 
L 242.268108 219.427734 
L 238.222299 218.320828 
L 242.209298 217.017891 
L 241.827261 217.830974 
L 244.802786 217.75836 
L 244.822389 218.56164 
" clip-path="url(#p5dcd23cb3d)"/>
    <path clip-path="url(#p5dcd23cb3d)"/>
    <path clip-path="url(#p5dcd23cb3d)"/>
    <path d="M 280.284918 217.96899 
L 282.39091 221.865975 
L 282.9068 221.130507 
L 283.756548 225.238029 
L 280.786104 222.276565 
L 281.684012 222.247995 
L 279.578019 218.35101 
L 280.284918 217.96899 
" clip-path="url(#p5dcd23cb3d)"/>
    <path d="M 291.89697 218.466957 
L 286.27768 223.21212 
L 287.103052 223.566827 
L 283.255859 225.238029 
L 285.547807 221.725084 
L 285.759265 222.598206 
L 291.378555 217.853043 
L 291.89697 218.466957 
" clip-path="url(#p5dcd23cb3d)"/>
    <path clip-path="url(#p5dcd23cb3d)"/>
    <path clip-path="url(#p5dcd23cb3d)"/>
    <path clip-path="url(#p5dcd23cb3d)"/>
    <path d="M 338.157272 217.89927 
L 340.393832 215.277252 
L 339.521773 215.061457 
L 343.046065 212.786996 
L 341.355763 216.625835 
L 341.005162 215.798711 
L 338.768602 218.42073 
L 338.157272 217.89927 
" clip-path="url(#p5dcd23cb3d)"/>
    <path d="M 350.547722 218.294743 
L 348.748143 223.349722 
L 349.639868 223.240718 
L 347.156963 226.621397 
L 347.368922 222.432258 
L 347.991161 223.080236 
L 349.79074 218.025257 
L 350.547722 218.294743 
" clip-path="url(#p5dcd23cb3d)"/>
    <path clip-path="url(#p5dcd23cb3d)"/>
    <path clip-path="url(#p5dcd23cb3d)"/>
    <path clip-path="url(#p5dcd23cb3d)"/>
    <path clip-path="url(#p5dcd23cb3d)"/>
    <path clip-path="url(#p5dcd23cb3d)"/>
    <path clip-path="url(#p5dcd23cb3d)"/>
    <path clip-path="url(#p5dcd23cb3d)"/>
    <path d="M 127.879701 206.325363 
L 128.083568 206.455414 
L 128.139802 205.917629 
L 129.788324 207.829737 
L 127.359498 207.140833 
L 127.823467 206.863149 
L 127.6196 206.733098 
L 127.879701 206.325363 
" clip-path="url(#p5dcd23cb3d)"/>
    <path d="M 139.855071 206.575153 
L 139.322873 211.200717 
L 140.167049 210.893434 
L 138.510449 214.746937 
L 137.772287 210.617903 
L 138.524619 211.108874 
L 139.056817 206.483309 
L 139.855071 206.575153 
" clip-path="url(#p5dcd23cb3d)"/>
    <path d="M 151.563826 206.540975 
L 151.429202 211.144387 
L 152.244123 210.766287 
L 150.921916 214.746937 
L 149.834593 210.695822 
L 150.626025 211.120898 
L 150.760649 206.517487 
L 151.563826 206.540975 
" clip-path="url(#p5dcd23cb3d)"/>
    <path d="M 163.26967 206.551576 
L 163.013018 211.159039 
L 163.837639 210.80259 
L 162.410777 214.746937 
L 161.43081 210.668522 
L 162.210742 211.114349 
L 162.467393 206.506886 
L 163.26967 206.551576 
" clip-path="url(#p5dcd23cb3d)"/>
    <path d="M 174.933645 206.70995 
L 173.118194 210.31455 
L 174.016553 210.317168 
L 171.132902 213.36321 
L 171.863633 209.232854 
L 172.400554 209.953112 
L 174.216005 206.348512 
L 174.933645 206.70995 
" clip-path="url(#p5dcd23cb3d)"/>
    <path d="M 186.668569 206.422958 
L 187.586591 209.76989 
L 188.255218 209.169895 
L 188.155596 213.36321 
L 185.93052 209.807532 
L 186.811692 209.982436 
L 185.893669 206.635503 
L 186.668569 206.422958 
" clip-path="url(#p5dcd23cb3d)"/>
    <path d="M 198.117463 206.179041 
L 198.467653 206.309092 
L 198.377564 205.478662 
L 201.489308 207.829737 
L 197.597261 207.579799 
L 198.207551 207.009471 
L 197.857362 206.87942 
L 198.117463 206.179041 
" clip-path="url(#p5dcd23cb3d)"/>
    <path d="M 209.40871 206.477458 
L 209.460483 206.192462 
L 208.838719 206.373913 
L 210.211433 203.679273 
L 210.548694 206.684549 
L 210.030475 206.296008 
L 209.978702 206.581003 
L 209.40871 206.477458 
" clip-path="url(#p5dcd23cb3d)"/>
    <path d="M 220.998609 206.512012 
L 221.143931 203.124467 
L 220.32393 203.491419 
L 221.700294 199.529168 
L 222.732275 203.594734 
L 221.946712 203.158905 
L 221.801391 206.54645 
L 220.998609 206.512012 
" clip-path="url(#p5dcd23cb3d)"/>
    <path d="M 232.706532 206.569257 
L 232.227381 201.783677 
L 231.467884 202.26349 
L 232.26691 198.1458 
L 233.866451 202.023335 
L 233.026903 201.703625 
L 233.506055 206.489205 
L 232.706532 206.569257 
" clip-path="url(#p5dcd23cb3d)"/>
    <path d="M 244.43654 206.38781 
L 245.79628 202.77217 
L 244.902766 202.865376 
L 247.445113 199.529168 
L 247.159048 203.7139 
L 246.548374 203.055011 
L 245.188634 206.670651 
L 244.43654 206.38781 
" clip-path="url(#p5dcd23cb3d)"/>
    <path d="M 256.281762 206.853554 
L 249.626217 201.987562 
L 249.476302 202.873328 
L 246.944424 199.529168 
L 250.899016 200.927387 
L 250.100454 201.338915 
L 256.756 206.204907 
L 256.281762 206.853554 
" clip-path="url(#p5dcd23cb3d)"/>
    <path clip-path="url(#p5dcd23cb3d)"/>
    <path clip-path="url(#p5dcd23cb3d)"/>
    <path d="M 291.491103 206.44514 
L 291.575194 206.298481 
L 291.197785 206.276958 
L 292.478673 205.062641 
L 292.077739 206.781504 
L 291.868512 206.466663 
L 291.784421 206.613322 
L 291.491103 206.44514 
" clip-path="url(#p5dcd23cb3d)"/>
    <path d="M 303.292642 206.927687 
L 295.51268 205.923821 
L 295.808309 206.772149 
L 291.977984 205.062641 
L 296.116792 204.381409 
L 295.615508 205.126908 
L 303.39547 206.130774 
L 303.292642 206.927687 
" clip-path="url(#p5dcd23cb3d)"/>
    <path clip-path="url(#p5dcd23cb3d)"/>
    <path clip-path="url(#p5dcd23cb3d)"/>
    <path d="M 338.074829 206.633074 
L 337.136465 203.125982 
L 336.464092 203.721776 
L 336.589987 199.529168 
L 338.79274 203.098719 
L 337.912681 202.918297 
L 338.851045 206.425388 
L 338.074829 206.633074 
" clip-path="url(#p5dcd23cb3d)"/>
    <path d="M 350.437398 206.828392 
L 345.505998 211.248871 
L 346.341493 211.579027 
L 342.545376 213.36321 
L 344.732492 209.784057 
L 344.969664 210.650547 
L 349.901064 206.230069 
L 350.437398 206.828392 
" clip-path="url(#p5dcd23cb3d)"/>
    <path clip-path="url(#p5dcd23cb3d)"/>
    <path clip-path="url(#p5dcd23cb3d)"/>
    <path clip-path="url(#p5dcd23cb3d)"/>
    <path clip-path="url(#p5dcd23cb3d)"/>
    <path clip-path="url(#p5dcd23cb3d)"/>
    <path clip-path="url(#p5dcd23cb3d)"/>
    <path d="M 115.979105 194.501872 
L 122.966479 193.369853 
L 122.441387 192.640926 
L 126.600031 193.188181 
L 122.826894 195.02046 
L 123.094981 194.163031 
L 116.107608 195.295051 
L 115.979105 194.501872 
" clip-path="url(#p5dcd23cb3d)"/>
    <path d="M 127.578622 195.063492 
L 127.413592 194.892464 
L 127.236566 195.393554 
L 126.099342 193.188181 
L 128.262734 194.403369 
L 127.755648 194.562403 
L 127.920678 194.733431 
L 127.578622 195.063492 
" clip-path="url(#p5dcd23cb3d)"/>
    <path clip-path="url(#p5dcd23cb3d)"/>
    <path d="M 150.761195 194.87446 
L 151.227104 187.089625 
L 150.401017 187.442664 
L 151.844161 183.504244 
L 152.807272 187.586674 
L 152.029189 187.137628 
L 151.56328 194.922463 
L 150.761195 194.87446 
" clip-path="url(#p5dcd23cb3d)"/>
    <path clip-path="url(#p5dcd23cb3d)"/>
    <path clip-path="url(#p5dcd23cb3d)"/>
    <path clip-path="url(#p5dcd23cb3d)"/>
    <path clip-path="url(#p5dcd23cb3d)"/>
    <path d="M 210.094853 194.876266 
L 210.412819 200.622973 
L 211.192917 200.177435 
L 210.211433 204.255486 
L 208.786038 200.310609 
L 209.610527 200.667364 
L 209.29256 194.920657 
L 210.094853 194.876266 
" clip-path="url(#p5dcd23cb3d)"/>
    <path d="M 221.801094 194.87533 
L 221.8932 196.472408 
L 222.672256 196.025051 
L 221.700294 200.105382 
L 220.265694 196.163842 
L 221.091013 196.518672 
L 220.998906 194.921593 
L 221.801094 194.87533 
" clip-path="url(#p5dcd23cb3d)"/>
    <path d="M 233.488649 194.9824 
L 233.404711 195.364755 
L 234.253359 195.150277 
L 232.26691 198.722014 
L 231.959228 194.646646 
L 232.64 195.196878 
L 232.723938 194.814523 
L 233.488649 194.9824 
" clip-path="url(#p5dcd23cb3d)"/>
    <path d="M 245.056606 194.911883 
L 245.043185 195.155901 
L 245.544643 194.938725 
L 244.678377 197.338646 
L 244.080532 194.858198 
L 244.555148 195.129059 
L 244.568569 194.88504 
L 245.056606 194.911883 
" clip-path="url(#p5dcd23cb3d)"/>
    <path d="M 256.18921 195.128088 
L 255.137465 193.61811 
L 254.707749 194.407033 
L 253.400502 190.421445 
L 256.685775 193.029277 
L 255.796807 193.158858 
L 256.848552 194.668836 
L 256.18921 195.128088 
" clip-path="url(#p5dcd23cb3d)"/>
    <path clip-path="url(#p5dcd23cb3d)"/>
    <path clip-path="url(#p5dcd23cb3d)"/>
    <path d="M 292.038296 194.867102 
L 292.596971 202.002687 
L 293.36668 201.539434 
L 292.478673 205.638855 
L 290.963475 201.727591 
L 291.795903 202.065406 
L 291.237228 194.929821 
L 292.038296 194.867102 
" clip-path="url(#p5dcd23cb3d)"/>
    <path clip-path="url(#p5dcd23cb3d)"/>
    <path clip-path="url(#p5dcd23cb3d)"/>
    <path d="M 326.937423 194.539672 
L 334.042354 198.119572 
L 334.045124 197.221214 
L 337.090676 200.105382 
L 332.960444 199.373949 
L 333.680794 198.837151 
L 326.575863 195.257251 
L 326.937423 194.539672 
" clip-path="url(#p5dcd23cb3d)"/>
    <path d="M 338.840984 195.034446 
L 338.191897 196.838947 
L 339.083975 196.732871 
L 336.589987 200.105382 
L 336.815696 195.916961 
L 337.435804 196.566978 
L 338.08489 194.762477 
L 338.840984 195.034446 
" clip-path="url(#p5dcd23cb3d)"/>
    <path clip-path="url(#p5dcd23cb3d)"/>
    <path clip-path="url(#p5dcd23cb3d)"/>
    <path clip-path="url(#p5dcd23cb3d)"/>
    <path clip-path="url(#p5dcd23cb3d)"/>
    <path clip-path="url(#p5dcd23cb3d)"/>
    <path clip-path="url(#p5dcd23cb3d)"/>
    <path clip-path="url(#p5dcd23cb3d)"/>
    <path clip-path="url(#p5dcd23cb3d)"/>
    <path d="M 127.361813 183.372542 
L 126.655156 180.758641 
L 125.984332 181.356178 
L 126.099342 177.163258 
L 128.311354 180.727077 
L 127.43083 180.548941 
L 128.137487 183.162842 
L 127.361813 183.372542 
" clip-path="url(#p5dcd23cb3d)"/>
    <path clip-path="url(#p5dcd23cb3d)"/>
    <path d="M 151.243514 183.1995 
L 151.311707 183.280777 
L 151.406067 183.063115 
L 151.844161 184.080458 
L 150.918408 183.472269 
L 151.149154 183.417161 
L 151.080961 183.335885 
L 151.243514 183.1995 
" clip-path="url(#p5dcd23cb3d)"/>
    <path d="M 162.535589 183.492548 
L 158.568065 177.617862 
L 158.127036 178.400517 
L 156.877304 174.396521 
L 160.124692 177.051381 
L 159.233951 177.16815 
L 163.201474 183.042836 
L 162.535589 183.492548 
" clip-path="url(#p5dcd23cb3d)"/>
    <path clip-path="url(#p5dcd23cb3d)"/>
    <path clip-path="url(#p5dcd23cb3d)"/>
    <path clip-path="url(#p5dcd23cb3d)"/>
    <path clip-path="url(#p5dcd23cb3d)"/>
    <path clip-path="url(#p5dcd23cb3d)"/>
    <path clip-path="url(#p5dcd23cb3d)"/>
    <path d="M 245.072878 182.961653 
L 251.407126 188.349007 
L 251.621667 187.476638 
L 253.901191 190.997659 
L 250.059926 189.312875 
L 250.886546 188.961086 
L 244.552297 183.573732 
L 245.072878 182.961653 
" clip-path="url(#p5dcd23cb3d)"/>
    <path d="M 256.891466 183.417998 
L 255.12584 187.794703 
L 256.021315 187.72273 
L 253.400502 190.997658 
L 253.785808 186.820895 
L 254.380671 187.494091 
L 256.146297 183.117386 
L 256.891466 183.417998 
" clip-path="url(#p5dcd23cb3d)"/>
    <path d="M 267.949662 183.560103 
L 262.634316 178.551915 
L 262.375701 179.412248 
L 260.278136 175.779889 
L 264.028778 177.657786 
L 263.185342 177.967094 
L 268.500688 182.975282 
L 267.949662 183.560103 
" clip-path="url(#p5dcd23cb3d)"/>
    <path clip-path="url(#p5dcd23cb3d)"/>
    <path d="M 291.478646 182.898784 
L 292.688725 182.376858 
L 292.001585 181.798157 
L 296.168014 181.313722 
L 292.956281 184.011606 
L 293.006957 183.114674 
L 291.796878 183.6366 
L 291.478646 182.898784 
" clip-path="url(#p5dcd23cb3d)"/>
    <path d="M 303.244955 183.657038 
L 299.072336 182.594975 
L 299.263481 183.472767 
L 295.667325 181.313722 
L 299.858085 181.136692 
L 299.270538 181.816283 
L 303.443157 182.878347 
L 303.244955 183.657038 
" clip-path="url(#p5dcd23cb3d)"/>
    <path clip-path="url(#p5dcd23cb3d)"/>
    <path d="M 326.709223 182.868741 
L 327.919219 182.724919 
L 327.425427 181.974435 
L 331.557204 182.69709 
L 327.709947 184.368145 
L 328.014059 183.522822 
L 326.804063 183.666644 
L 326.709223 182.868741 
" clip-path="url(#p5dcd23cb3d)"/>
    <path d="M 338.432076 183.668265 
L 334.630811 183.37541 
L 334.969662 184.207417 
L 331.056515 182.69709 
L 335.154827 181.803979 
L 334.692532 182.574264 
L 338.493798 182.867119 
L 338.432076 183.668265 
" clip-path="url(#p5dcd23cb3d)"/>
    <path clip-path="url(#p5dcd23cb3d)"/>
    <path clip-path="url(#p5dcd23cb3d)"/>
    <path clip-path="url(#p5dcd23cb3d)"/>
    <path clip-path="url(#p5dcd23cb3d)"/>
    <path clip-path="url(#p5dcd23cb3d)"/>
    <path clip-path="url(#p5dcd23cb3d)"/>
    <path clip-path="url(#p5dcd23cb3d)"/>
    <path clip-path="url(#p5dcd23cb3d)"/>
    <path d="M 128.137479 171.741803 
L 127.431094 174.353892 
L 128.311632 174.175823 
L 126.099342 177.739471 
L 125.984659 173.546542 
L 126.655436 174.144131 
L 127.361821 171.532043 
L 128.137479 171.741803 
" clip-path="url(#p5dcd23cb3d)"/>
    <path clip-path="url(#p5dcd23cb3d)"/>
    <path d="M 151.559868 171.579465 
L 151.724672 172.719974 
L 152.462474 172.207429 
L 151.844161 176.356103 
L 150.076694 172.552175 
L 150.929412 172.83489 
L 150.764608 171.694381 
L 151.559868 171.579465 
" clip-path="url(#p5dcd23cb3d)"/>
    <path d="M 163.063972 171.987941 
L 160.231911 173.564784 
L 160.973811 174.07138 
L 156.877304 174.972735 
L 159.801166 171.96527 
L 159.841029 172.862748 
L 162.67309 171.285905 
L 163.063972 171.987941 
" clip-path="url(#p5dcd23cb3d)"/>
    <path clip-path="url(#p5dcd23cb3d)"/>
    <path clip-path="url(#p5dcd23cb3d)"/>
    <path clip-path="url(#p5dcd23cb3d)"/>
    <path clip-path="url(#p5dcd23cb3d)"/>
    <path clip-path="url(#p5dcd23cb3d)"/>
    <path clip-path="url(#p5dcd23cb3d)"/>
    <path clip-path="url(#p5dcd23cb3d)"/>
    <path d="M 256.817108 171.367717 
L 258.6542 173.402854 
L 258.981448 172.566215 
L 260.778825 176.356103 
L 257.192086 174.18145 
L 258.057746 173.941265 
L 256.220654 171.906129 
L 256.817108 171.367717 
" clip-path="url(#p5dcd23cb3d)"/>
    <path d="M 268.430309 171.982366 
L 263.59226 174.855339 
L 264.347971 175.341091 
L 260.278136 176.356103 
L 263.117167 173.268431 
L 263.181992 174.164452 
L 268.020041 171.29148 
L 268.430309 171.982366 
" clip-path="url(#p5dcd23cb3d)"/>
    <path clip-path="url(#p5dcd23cb3d)"/>
    <path d="M 291.388605 171.321754 
L 293.082332 169.982779 
L 292.268848 169.601597 
L 296.168014 168.055534 
L 293.763791 171.492614 
L 293.580646 170.613118 
L 291.886919 171.952093 
L 291.388605 171.321754 
" clip-path="url(#p5dcd23cb3d)"/>
    <path d="M 303.1742 172.001011 
L 298.77426 169.948328 
L 298.798635 170.84636 
L 295.667325 168.055534 
L 299.817772 168.661833 
L 299.113972 169.220152 
L 303.513912 171.272835 
L 303.1742 172.001011 
" clip-path="url(#p5dcd23cb3d)"/>
    <path clip-path="url(#p5dcd23cb3d)"/>
    <path clip-path="url(#p5dcd23cb3d)"/>
    <path clip-path="url(#p5dcd23cb3d)"/>
    <path clip-path="url(#p5dcd23cb3d)"/>
    <path clip-path="url(#p5dcd23cb3d)"/>
    <path clip-path="url(#p5dcd23cb3d)"/>
    <path clip-path="url(#p5dcd23cb3d)"/>
    <path clip-path="url(#p5dcd23cb3d)"/>
    <path clip-path="url(#p5dcd23cb3d)"/>
    <path clip-path="url(#p5dcd23cb3d)"/>
    <path clip-path="url(#p5dcd23cb3d)"/>
    <path d="M 127.92049 159.894511 
L 128.032133 160.06535 
L 128.262168 159.671225 
L 128.866079 161.714547 
L 127.237132 160.341082 
L 127.690454 160.288636 
L 127.578811 160.117797 
L 127.92049 159.894511 
" clip-path="url(#p5dcd23cb3d)"/>
    <path d="M 139.51711 160.40323 
L 132.000245 161.561131 
L 132.519653 162.294119 
L 128.36539 161.714547 
L 132.152658 159.911659 
L 131.877913 160.766978 
L 139.394778 159.609077 
L 139.51711 160.40323 
" clip-path="url(#p5dcd23cb3d)"/>
    <path clip-path="url(#p5dcd23cb3d)"/>
    <path clip-path="url(#p5dcd23cb3d)"/>
    <path clip-path="url(#p5dcd23cb3d)"/>
    <path clip-path="url(#p5dcd23cb3d)"/>
    <path clip-path="url(#p5dcd23cb3d)"/>
    <path clip-path="url(#p5dcd23cb3d)"/>
    <path clip-path="url(#p5dcd23cb3d)"/>
    <path clip-path="url(#p5dcd23cb3d)"/>
    <path clip-path="url(#p5dcd23cb3d)"/>
    <path d="M 256.644669 159.624593 
L 258.392812 160.200897 
L 258.262827 159.311988 
L 261.70107 161.714547 
L 257.508101 161.601352 
L 258.141237 160.964019 
L 256.393093 160.387715 
L 256.644669 159.624593 
" clip-path="url(#p5dcd23cb3d)"/>
    <path d="M 268.320114 160.396535 
L 264.808754 161.25048 
L 265.389013 161.936304 
L 261.200381 161.714547 
L 264.81938 159.594015 
L 264.618876 160.469717 
L 268.130236 159.615772 
L 268.320114 160.396535 
" clip-path="url(#p5dcd23cb3d)"/>
    <path clip-path="url(#p5dcd23cb3d)"/>
    <path d="M 291.989384 159.811801 
L 294.086885 163.606592 
L 294.595777 162.866265 
L 295.484438 166.965544 
L 292.486044 164.032381 
L 293.383641 163.995297 
L 291.28614 160.200507 
L 291.989384 159.811801 
" clip-path="url(#p5dcd23cb3d)"/>
    <path d="M 303.64417 160.273254 
L 298.371341 166.197819 
L 299.238669 166.431904 
L 295.667325 168.631748 
L 297.437983 164.829304 
L 297.771112 165.663618 
L 303.043942 159.739054 
L 303.64417 160.273254 
" clip-path="url(#p5dcd23cb3d)"/>
    <path d="M 315.063903 159.604623 
L 321.079341 159.807668 
L 320.704916 158.991052 
L 324.679569 160.331179 
L 320.623596 161.40024 
L 321.052234 160.610731 
L 315.036796 160.407685 
L 315.063903 159.604623 
" clip-path="url(#p5dcd23cb3d)"/>
    <path d="M 326.789146 160.26393 
L 326.53137 160.296433 
L 326.854151 160.779483 
L 324.17888 160.331179 
L 326.659136 159.232825 
L 326.466365 159.78088 
L 326.724141 159.748378 
L 326.789146 160.26393 
" clip-path="url(#p5dcd23cb3d)"/>
    <path clip-path="url(#p5dcd23cb3d)"/>
    <path clip-path="url(#p5dcd23cb3d)"/>
    <path clip-path="url(#p5dcd23cb3d)"/>
    <path clip-path="url(#p5dcd23cb3d)"/>
    <path clip-path="url(#p5dcd23cb3d)"/>
    <path clip-path="url(#p5dcd23cb3d)"/>
    <path clip-path="url(#p5dcd23cb3d)"/>
    <path clip-path="url(#p5dcd23cb3d)"/>
    <path clip-path="url(#p5dcd23cb3d)"/>
    <path clip-path="url(#p5dcd23cb3d)"/>
    <path d="M 139.054191 148.37768 
L 139.0516 147.924332 
L 138.250389 148.330676 
L 139.432695 144.306255 
L 140.66091 148.316903 
L 139.855107 147.919741 
L 139.857697 148.373089 
L 139.054191 148.37768 
" clip-path="url(#p5dcd23cb3d)"/>
    <path clip-path="url(#p5dcd23cb3d)"/>
    <path clip-path="url(#p5dcd23cb3d)"/>
    <path clip-path="url(#p5dcd23cb3d)"/>
    <path clip-path="url(#p5dcd23cb3d)"/>
    <path clip-path="url(#p5dcd23cb3d)"/>
    <path clip-path="url(#p5dcd23cb3d)"/>
    <path clip-path="url(#p5dcd23cb3d)"/>
    <path clip-path="url(#p5dcd23cb3d)"/>
    <path clip-path="url(#p5dcd23cb3d)"/>
    <path d="M 256.74776 148.045195 
L 259.880486 150.216721 
L 260.008055 149.327461 
L 262.623316 152.606824 
L 258.634779 151.308601 
L 259.422727 150.8771 
L 256.290002 148.705575 
L 256.74776 148.045195 
" clip-path="url(#p5dcd23cb3d)"/>
    <path d="M 268.454102 148.705541 
L 265.322965 150.876637 
L 266.110976 151.308024 
L 262.122627 152.606824 
L 264.737413 149.327083 
L 264.865111 150.216324 
L 267.996248 148.045228 
L 268.454102 148.705541 
" clip-path="url(#p5dcd23cb3d)"/>
    <path d="M 280.048435 147.991028 
L 285.948136 149.786404 
L 285.797712 148.900725 
L 289.29038 151.223456 
L 285.095915 151.206865 
L 285.714204 150.555118 
L 279.814502 148.759741 
L 280.048435 147.991028 
" clip-path="url(#p5dcd23cb3d)"/>
    <path d="M 291.921849 148.659472 
L 291.630563 148.950758 
L 292.482825 149.234845 
L 288.789691 151.223456 
L 290.778302 147.530322 
L 291.062389 148.382584 
L 291.353675 148.091297 
L 291.921849 148.659472 
" clip-path="url(#p5dcd23cb3d)"/>
    <path clip-path="url(#p5dcd23cb3d)"/>
    <path d="M 314.698792 148.180915 
L 315.199466 147.275806 
L 314.301882 147.238425 
L 317.301246 144.306255 
L 316.411228 148.40524 
L 315.902582 147.664744 
L 315.401907 148.569854 
L 314.698792 148.180915 
" clip-path="url(#p5dcd23cb3d)"/>
    <path d="M 326.604646 148.747282 
L 319.995639 146.04613 
L 320.063541 146.941923 
L 316.800557 144.306255 
L 320.975526 144.710537 
L 320.299634 145.302335 
L 326.908641 148.003487 
L 326.604646 148.747282 
" clip-path="url(#p5dcd23cb3d)"/>
    <path clip-path="url(#p5dcd23cb3d)"/>
    <path clip-path="url(#p5dcd23cb3d)"/>
    <path clip-path="url(#p5dcd23cb3d)"/>
    <path clip-path="url(#p5dcd23cb3d)"/>
    <path clip-path="url(#p5dcd23cb3d)"/>
    <path clip-path="url(#p5dcd23cb3d)"/>
    <path clip-path="url(#p5dcd23cb3d)"/>
    <path clip-path="url(#p5dcd23cb3d)"/>
    <path clip-path="url(#p5dcd23cb3d)"/>
    <path clip-path="url(#p5dcd23cb3d)"/>
    <path d="M 139.857702 136.745763 
L 139.844783 141.267791 
L 140.649448 140.868329 
L 139.432695 144.882469 
L 138.238898 140.861442 
L 139.041266 141.265496 
L 139.054186 136.743468 
L 139.857702 136.745763 
" clip-path="url(#p5dcd23cb3d)"/>
    <path d="M 150.869293 136.953097 
L 150.660811 136.660152 
L 150.283402 137.370059 
L 149.077425 133.815164 
L 152.041073 136.119171 
L 151.246702 136.243189 
L 151.455183 136.536134 
L 150.869293 136.953097 
" clip-path="url(#p5dcd23cb3d)"/>
    <path clip-path="url(#p5dcd23cb3d)"/>
    <path clip-path="url(#p5dcd23cb3d)"/>
    <path clip-path="url(#p5dcd23cb3d)"/>
    <path clip-path="url(#p5dcd23cb3d)"/>
    <path clip-path="url(#p5dcd23cb3d)"/>
    <path clip-path="url(#p5dcd23cb3d)"/>
    <path clip-path="url(#p5dcd23cb3d)"/>
    <path clip-path="url(#p5dcd23cb3d)"/>
    <path clip-path="url(#p5dcd23cb3d)"/>
    <path clip-path="url(#p5dcd23cb3d)"/>
    <path clip-path="url(#p5dcd23cb3d)"/>
    <path clip-path="url(#p5dcd23cb3d)"/>
    <path clip-path="url(#p5dcd23cb3d)"/>
    <path d="M 314.660812 136.84296 
L 314.107826 134.652609 
L 313.427096 135.238836 
L 313.612264 131.048427 
L 315.764321 134.648769 
L 314.886901 134.455921 
L 315.439887 136.646271 
L 314.660812 136.84296 
" clip-path="url(#p5dcd23cb3d)"/>
    <path clip-path="url(#p5dcd23cb3d)"/>
    <path clip-path="url(#p5dcd23cb3d)"/>
    <path clip-path="url(#p5dcd23cb3d)"/>
    <path clip-path="url(#p5dcd23cb3d)"/>
    <path clip-path="url(#p5dcd23cb3d)"/>
    <path clip-path="url(#p5dcd23cb3d)"/>
    <path clip-path="url(#p5dcd23cb3d)"/>
    <path clip-path="url(#p5dcd23cb3d)"/>
    <path clip-path="url(#p5dcd23cb3d)"/>
    <path clip-path="url(#p5dcd23cb3d)"/>
    <path clip-path="url(#p5dcd23cb3d)"/>
    <path clip-path="url(#p5dcd23cb3d)"/>
    <path d="M 151.554223 125.201932 
L 150.262178 130.9516 
L 151.134233 130.735786 
L 149.077425 134.391377 
L 148.782324 130.207273 
L 149.478209 130.775429 
L 150.770253 125.025761 
L 151.554223 125.201932 
" clip-path="url(#p5dcd23cb3d)"/>
    <path d="M 162.689554 125.067397 
L 162.736003 124.88842 
L 162.331599 124.974499 
L 163.333022 123.324072 
L 163.405464 125.253193 
L 163.093958 124.981318 
L 163.047509 125.160295 
L 162.689554 125.067397 
" clip-path="url(#p5dcd23cb3d)"/>
    <path d="M 174.185034 125.211182 
L 172.541375 118.628957 
L 171.859129 119.213418 
L 172.055148 115.023504 
L 174.197874 118.629406 
L 173.320957 118.434286 
L 174.964616 125.016511 
L 174.185034 125.211182 
" clip-path="url(#p5dcd23cb3d)"/>
    <path clip-path="url(#p5dcd23cb3d)"/>
    <path clip-path="url(#p5dcd23cb3d)"/>
    <path d="M 209.561338 124.734518 
L 211.27634 124.13606 
L 210.632275 123.509772 
L 214.82266 123.324072 
L 211.426485 125.78574 
L 211.541077 124.894716 
L 209.826075 125.493174 
L 209.561338 124.734518 
" clip-path="url(#p5dcd23cb3d)"/>
    <path d="M 220.998752 125.093562 
L 221.11649 122.764553 
L 220.29371 123.125232 
L 221.700294 119.173608 
L 222.701196 123.246937 
L 221.918985 122.805121 
L 221.801248 125.13413 
L 220.998752 125.093562 
" clip-path="url(#p5dcd23cb3d)"/>
    <path d="M 232.852613 125.425386 
L 228.361375 121.768271 
L 228.165555 122.645032 
L 225.811192 119.173608 
L 229.687637 120.77579 
L 228.868736 121.145191 
L 233.359974 124.802306 
L 232.852613 125.425386 
" clip-path="url(#p5dcd23cb3d)"/>
    <path clip-path="url(#p5dcd23cb3d)"/>
    <path clip-path="url(#p5dcd23cb3d)"/>
    <path clip-path="url(#p5dcd23cb3d)"/>
    <path clip-path="url(#p5dcd23cb3d)"/>
    <path clip-path="url(#p5dcd23cb3d)"/>
    <path d="M 303.017213 124.880212 
L 306.149572 120.498191 
L 305.262252 120.357766 
L 308.579121 117.79024 
L 307.223309 121.75957 
L 306.803258 120.96546 
L 303.670899 125.34748 
L 303.017213 124.880212 
" clip-path="url(#p5dcd23cb3d)"/>
    <path d="M 315.442654 125.200497 
L 314.784428 128.180553 
L 315.655688 127.961551 
L 313.612264 131.624641 
L 313.301862 127.441644 
L 313.999819 128.007251 
L 314.658045 125.027195 
L 315.442654 125.200497 
" clip-path="url(#p5dcd23cb3d)"/>
    <path clip-path="url(#p5dcd23cb3d)"/>
    <path clip-path="url(#p5dcd23cb3d)"/>
    <path clip-path="url(#p5dcd23cb3d)"/>
    <path clip-path="url(#p5dcd23cb3d)"/>
    <path clip-path="url(#p5dcd23cb3d)"/>
    <path clip-path="url(#p5dcd23cb3d)"/>
    <path clip-path="url(#p5dcd23cb3d)"/>
    <path clip-path="url(#p5dcd23cb3d)"/>
    <path clip-path="url(#p5dcd23cb3d)"/>
    <path clip-path="url(#p5dcd23cb3d)"/>
    <path clip-path="url(#p5dcd23cb3d)"/>
    <path clip-path="url(#p5dcd23cb3d)"/>
    <path clip-path="url(#p5dcd23cb3d)"/>
    <path d="M 162.954291 113.090577 
L 169.109095 114.435379 
L 168.888115 113.564619 
L 172.555837 115.599717 
L 168.373556 115.919619 
L 168.937576 115.220379 
L 162.782772 113.875577 
L 162.954291 113.090577 
" clip-path="url(#p5dcd23cb3d)"/>
    <path d="M 174.786489 113.735045 
L 174.534521 113.946709 
L 175.209817 114.23898 
L 172.055148 115.599717 
L 173.939833 112.727174 
L 174.111193 113.442773 
L 174.363161 113.231109 
L 174.786489 113.735045 
" clip-path="url(#p5dcd23cb3d)"/>
    <path clip-path="url(#p5dcd23cb3d)"/>
    <path clip-path="url(#p5dcd23cb3d)"/>
    <path d="M 209.90537 113.33908 
L 210.049368 113.550744 
L 210.328698 113.051085 
L 211.133678 115.599717 
L 209.058714 113.915069 
L 209.626039 113.838738 
L 209.482042 113.627074 
L 209.90537 113.33908 
" clip-path="url(#p5dcd23cb3d)"/>
    <path d="M 221.8013 113.463847 
L 221.928526 116.118896 
L 222.711895 115.679137 
L 221.700294 119.749822 
L 220.304098 115.794516 
L 221.125927 116.157356 
L 220.9987 113.502307 
L 221.8013 113.463847 
" clip-path="url(#p5dcd23cb3d)"/>
    <path d="M 233.041284 113.290306 
L 233.234055 113.225296 
L 232.911265 112.904763 
L 235.034006 112.832981 
L 233.301323 114.061391 
L 233.364075 113.610839 
L 233.171303 113.675848 
L 233.041284 113.290306 
" clip-path="url(#p5dcd23cb3d)"/>
    <path d="M 244.420302 113.569814 
L 243.221877 108.149717 
L 242.524043 108.715477 
L 242.833526 104.532412 
L 244.877755 108.195053 
L 244.006447 107.976242 
L 245.204873 113.39634 
L 244.420302 113.569814 
" clip-path="url(#p5dcd23cb3d)"/>
    <path clip-path="url(#p5dcd23cb3d)"/>
    <path clip-path="url(#p5dcd23cb3d)"/>
    <path clip-path="url(#p5dcd23cb3d)"/>
    <path clip-path="url(#p5dcd23cb3d)"/>
    <path d="M 303.618104 113.189293 
L 306.209114 115.606241 
L 306.463425 114.744625 
L 308.579121 118.366453 
L 304.819139 116.507329 
L 305.661018 116.193808 
L 303.070008 113.776861 
L 303.618104 113.189293 
" clip-path="url(#p5dcd23cb3d)"/>
    <path d="M 315.28084 113.812144 
L 311.270528 116.621108 
L 312.060576 117.048752 
L 308.078432 118.366453 
L 310.677634 115.074348 
L 310.809548 115.962973 
L 314.819859 113.15401 
L 315.28084 113.812144 
" clip-path="url(#p5dcd23cb3d)"/>
    <path clip-path="url(#p5dcd23cb3d)"/>
    <path clip-path="url(#p5dcd23cb3d)"/>
    <path clip-path="url(#p5dcd23cb3d)"/>
    <path clip-path="url(#p5dcd23cb3d)"/>
    <path clip-path="url(#p5dcd23cb3d)"/>
    <path clip-path="url(#p5dcd23cb3d)"/>
    <path clip-path="url(#p5dcd23cb3d)"/>
    <path clip-path="url(#p5dcd23cb3d)"/>
    <path clip-path="url(#p5dcd23cb3d)"/>
    <path clip-path="url(#p5dcd23cb3d)"/>
    <path clip-path="url(#p5dcd23cb3d)"/>
    <path clip-path="url(#p5dcd23cb3d)"/>
    <path clip-path="url(#p5dcd23cb3d)"/>
    <path clip-path="url(#p5dcd23cb3d)"/>
    <path d="M 174.416651 101.482995 
L 179.640461 99.245677 
L 178.954801 98.665225 
L 183.122453 98.191425 
L 179.903844 100.881103 
L 179.956809 99.984303 
L 174.732999 102.221621 
L 174.416651 101.482995 
" clip-path="url(#p5dcd23cb3d)"/>
    <path d="M 185.996972 102.136336 
L 184.893869 101.032771 
L 184.609604 101.884974 
L 182.621763 98.191425 
L 186.314482 100.180806 
L 185.462162 100.464716 
L 186.565265 101.56828 
L 185.996972 102.136336 
" clip-path="url(#p5dcd23cb3d)"/>
    <path clip-path="url(#p5dcd23cb3d)"/>
    <path d="M 209.634979 101.454863 
L 212.109177 101.089267 
L 211.594277 100.353106 
L 215.744906 100.958162 
L 211.946644 102.737773 
L 212.226633 101.884156 
L 209.752434 102.249752 
L 209.634979 101.454863 
" clip-path="url(#p5dcd23cb3d)"/>
    <path d="M 220.99895 101.828432 
L 221.084367 100.393631 
L 220.258391 100.746931 
L 221.700294 96.808057 
L 222.664691 100.890182 
L 221.886467 100.441382 
L 221.80105 101.876183 
L 220.99895 101.828432 
" clip-path="url(#p5dcd23cb3d)"/>
    <path d="M 232.709983 101.918255 
L 232.464129 100.440799 
L 231.737455 100.969005 
L 232.26691 96.808057 
L 234.115318 100.573319 
L 233.25675 100.308904 
L 233.502604 101.78636 
L 232.709983 101.918255 
" clip-path="url(#p5dcd23cb3d)"/>
    <path d="M 245.138219 102.050214 
L 244.940313 102.375846 
L 245.789483 102.446026 
L 242.833526 105.108626 
L 243.835692 101.258589 
L 244.289049 101.980033 
L 244.486956 101.654402 
L 245.138219 102.050214 
" clip-path="url(#p5dcd23cb3d)"/>
    <path clip-path="url(#p5dcd23cb3d)"/>
    <path clip-path="url(#p5dcd23cb3d)"/>
    <path clip-path="url(#p5dcd23cb3d)"/>
    <path d="M 291.307593 101.623399 
L 295.62216 95.400212 
L 294.732912 95.272565 
L 298.012505 92.657593 
L 296.713931 96.646015 
L 296.2825 95.858029 
L 291.967932 102.081216 
L 291.307593 101.623399 
" clip-path="url(#p5dcd23cb3d)"/>
    <path d="M 303.531351 101.789924 
L 303.593735 101.977219 
L 303.905941 101.665156 
L 303.967894 103.725258 
L 302.782171 102.039459 
L 303.219145 102.101986 
L 303.156761 101.914691 
L 303.531351 101.789924 
" clip-path="url(#p5dcd23cb3d)"/>
    <path d="M 315.11448 102.248916 
L 307.100813 103.544695 
L 307.625682 104.273783 
L 303.467205 103.725258 
L 307.240901 101.894131 
L 306.972553 102.751478 
L 314.98622 101.455699 
L 315.11448 102.248916 
" clip-path="url(#p5dcd23cb3d)"/>
    <path clip-path="url(#p5dcd23cb3d)"/>
    <path clip-path="url(#p5dcd23cb3d)"/>
    <path clip-path="url(#p5dcd23cb3d)"/>
    <path clip-path="url(#p5dcd23cb3d)"/>
    <path clip-path="url(#p5dcd23cb3d)"/>
    <path clip-path="url(#p5dcd23cb3d)"/>
    <path clip-path="url(#p5dcd23cb3d)"/>
    <path clip-path="url(#p5dcd23cb3d)"/>
    <path clip-path="url(#p5dcd23cb3d)"/>
    <path clip-path="url(#p5dcd23cb3d)"/>
    <path clip-path="url(#p5dcd23cb3d)"/>
    <path clip-path="url(#p5dcd23cb3d)"/>
    <path clip-path="url(#p5dcd23cb3d)"/>
    <path clip-path="url(#p5dcd23cb3d)"/>
    <path d="M 174.858887 89.937426 
L 180.849501 95.92697 
L 181.133512 95.074683 
L 183.122453 98.767639 
L 179.429141 96.779358 
L 180.281377 96.495195 
L 174.290763 90.505651 
L 174.858887 89.937426 
" clip-path="url(#p5dcd23cb3d)"/>
    <path d="M 185.990201 89.94445 
L 187.215372 88.658134 
L 186.356448 88.394875 
L 190.000087 86.316966 
L 188.101953 90.057406 
L 187.797206 89.212312 
L 186.572036 90.498627 
L 185.990201 89.94445 
" clip-path="url(#p5dcd23cb3d)"/>
    <path d="M 197.819512 90.586532 
L 192.61644 88.193067 
L 192.645632 89.090955 
L 189.499398 86.316966 
L 193.653037 86.900992 
L 192.952242 87.463079 
L 198.155313 89.856545 
L 197.819512 90.586532 
" clip-path="url(#p5dcd23cb3d)"/>
    <path clip-path="url(#p5dcd23cb3d)"/>
    <path d="M 221.801407 90.20471 
L 221.950242 93.754775 
L 222.736228 93.31971 
L 221.700294 97.384271 
L 220.327784 93.420683 
L 221.147427 93.788433 
L 220.998593 90.238367 
L 221.801407 90.20471 
" clip-path="url(#p5dcd23cb3d)"/>
    <path d="M 233.505323 90.2683 
L 233.086791 93.839767 
L 233.931612 93.53426 
L 232.26691 97.384271 
L 231.537435 93.253692 
L 232.288733 93.746244 
L 232.707264 90.174777 
L 233.505323 90.2683 
" clip-path="url(#p5dcd23cb3d)"/>
    <path d="M 245.21416 90.233799 
L 245.190291 91.015638 
L 246.005696 90.638586 
L 244.678377 94.617534 
L 243.596259 90.565025 
L 244.387145 90.991118 
L 244.411015 90.209278 
L 245.21416 90.233799 
" clip-path="url(#p5dcd23cb3d)"/>
    <path clip-path="url(#p5dcd23cb3d)"/>
    <path clip-path="url(#p5dcd23cb3d)"/>
    <path clip-path="url(#p5dcd23cb3d)"/>
    <path d="M 291.809408 89.858291 
L 294.914923 91.325745 
L 294.894968 90.427604 
L 298.012505 93.233806 
L 293.865092 92.607089 
L 294.571632 92.05224 
L 291.466116 90.584786 
L 291.809408 89.858291 
" clip-path="url(#p5dcd23cb3d)"/>
    <path d="M 303.528421 90.578499 
L 300.908824 91.931483 
L 301.634514 92.461039 
L 297.511816 93.233806 
L 300.528325 90.319277 
L 300.540094 91.217562 
L 303.159691 89.864578 
L 303.528421 90.578499 
" clip-path="url(#p5dcd23cb3d)"/>
    <path clip-path="url(#p5dcd23cb3d)"/>
    <path clip-path="url(#p5dcd23cb3d)"/>
    <path clip-path="url(#p5dcd23cb3d)"/>
    <path clip-path="url(#p5dcd23cb3d)"/>
    <path clip-path="url(#p5dcd23cb3d)"/>
    <path clip-path="url(#p5dcd23cb3d)"/>
    <path clip-path="url(#p5dcd23cb3d)"/>
    <path clip-path="url(#p5dcd23cb3d)"/>
    <path clip-path="url(#p5dcd23cb3d)"/>
    <path clip-path="url(#p5dcd23cb3d)"/>
    <path clip-path="url(#p5dcd23cb3d)"/>
    <path clip-path="url(#p5dcd23cb3d)"/>
    <path clip-path="url(#p5dcd23cb3d)"/>
    <path clip-path="url(#p5dcd23cb3d)"/>
    <path clip-path="url(#p5dcd23cb3d)"/>
    <path clip-path="url(#p5dcd23cb3d)"/>
    <path d="M 186.647775 78.42653 
L 188.888589 83.429037 
L 189.457662 82.733902 
L 190.000087 86.893179 
L 187.257726 83.719338 
L 188.155278 83.757515 
L 185.914463 78.755008 
L 186.647775 78.42653 
" clip-path="url(#p5dcd23cb3d)"/>
    <path d="M 197.710887 78.701738 
L 197.599918 78.425213 
L 197.157836 78.923677 
L 196.877721 75.825514 
L 198.816989 78.257862 
L 198.152969 78.203275 
L 198.263938 78.4798 
L 197.710887 78.701738 
" clip-path="url(#p5dcd23cb3d)"/>
    <path d="M 209.433974 78.897283 
L 203.487506 73.858388 
L 203.274556 74.731147 
L 200.988619 71.214287 
L 204.832948 72.892067 
L 204.00697 73.245362 
L 209.953438 78.284256 
L 209.433974 78.897283 
" clip-path="url(#p5dcd23cb3d)"/>
    <path clip-path="url(#p5dcd23cb3d)"/>
    <path clip-path="url(#p5dcd23cb3d)"/>
    <path clip-path="url(#p5dcd23cb3d)"/>
    <path clip-path="url(#p5dcd23cb3d)"/>
    <path clip-path="url(#p5dcd23cb3d)"/>
    <path clip-path="url(#p5dcd23cb3d)"/>
    <path d="M 291.49961 78.414454 
L 291.675925 78.276301 
L 291.223304 78.061822 
L 293.400918 77.209242 
L 292.05222 79.119716 
L 291.952231 78.628932 
L 291.775915 78.767085 
L 291.49961 78.414454 
" clip-path="url(#p5dcd23cb3d)"/>
    <path d="M 303.291369 78.98906 
L 296.432156 78.081711 
L 296.725074 78.930979 
L 292.900229 77.209242 
L 297.041193 76.541236 
L 296.537529 77.285131 
L 303.396742 78.192479 
L 303.291369 78.98906 
" clip-path="url(#p5dcd23cb3d)"/>
    <path clip-path="url(#p5dcd23cb3d)"/>
    <path clip-path="url(#p5dcd23cb3d)"/>
    <path clip-path="url(#p5dcd23cb3d)"/>
    <path clip-path="url(#p5dcd23cb3d)"/>
    <path clip-path="url(#p5dcd23cb3d)"/>
    <path clip-path="url(#p5dcd23cb3d)"/>
    <path clip-path="url(#p5dcd23cb3d)"/>
    <path clip-path="url(#p5dcd23cb3d)"/>
    <path clip-path="url(#p5dcd23cb3d)"/>
    <path clip-path="url(#p5dcd23cb3d)"/>
    <path clip-path="url(#p5dcd23cb3d)"/>
    <path clip-path="url(#p5dcd23cb3d)"/>
    <path clip-path="url(#p5dcd23cb3d)"/>
    <path clip-path="url(#p5dcd23cb3d)"/>
    <path clip-path="url(#p5dcd23cb3d)"/>
    <path clip-path="url(#p5dcd23cb3d)"/>
    <path clip-path="url(#p5dcd23cb3d)"/>
    <path d="M 198.312689 66.72419 
L 199.69229 68.627206 
L 200.107031 67.830309 
L 201.489308 71.790501 
L 198.155375 69.245172 
L 199.041737 69.098827 
L 197.662137 67.19581 
L 198.312689 66.72419 
" clip-path="url(#p5dcd23cb3d)"/>
    <path d="M 209.531149 67.092712 
L 209.398436 66.930155 
L 209.206033 67.358137 
L 208.366582 65.334423 
L 210.181379 66.561863 
L 209.723552 66.66473 
L 209.856264 66.827288 
L 209.531149 67.092712 
" clip-path="url(#p5dcd23cb3d)"/>
    <path d="M 220.998705 66.940678 
L 221.125102 64.31553 
L 220.30319 64.678181 
L 221.700294 60.723196 
L 222.710961 64.794112 
L 221.927693 64.354174 
L 221.801295 66.979322 
L 220.998705 66.940678 
" clip-path="url(#p5dcd23cb3d)"/>
    <path d="M 232.806207 67.227131 
L 228.837535 62.76886 
L 228.504493 63.603209 
L 226.733438 59.80095 
L 230.305012 62.00042 
L 229.437707 62.234597 
L 233.40638 66.692869 
L 232.806207 67.227131 
" clip-path="url(#p5dcd23cb3d)"/>
    <path clip-path="url(#p5dcd23cb3d)"/>
    <path clip-path="url(#p5dcd23cb3d)"/>
    <path clip-path="url(#p5dcd23cb3d)"/>
    <path d="M 279.914321 66.558606 
L 281.971346 66.470728 
L 281.535656 65.685088 
L 285.601039 66.717791 
L 281.638544 68.093452 
L 282.005642 67.273516 
L 279.948616 67.361394 
L 279.914321 66.558606 
" clip-path="url(#p5dcd23cb3d)"/>
    <path d="M 291.622887 67.361485 
L 288.698836 67.253149 
L 289.07057 68.070993 
L 285.10035 66.717791 
L 289.15982 65.662086 
L 288.728585 66.45018 
L 291.652637 66.558515 
L 291.622887 67.361485 
" clip-path="url(#p5dcd23cb3d)"/>
    <path clip-path="url(#p5dcd23cb3d)"/>
    <path clip-path="url(#p5dcd23cb3d)"/>
    <path clip-path="url(#p5dcd23cb3d)"/>
    <path clip-path="url(#p5dcd23cb3d)"/>
    <path clip-path="url(#p5dcd23cb3d)"/>
    <path clip-path="url(#p5dcd23cb3d)"/>
    <path clip-path="url(#p5dcd23cb3d)"/>
   </g>
  </g>
 </g>
 <defs>
  <clipPath id="p5dcd23cb3d">
   <rect x="54" y="51.84" width="334.8" height="332.64"/>
  </clipPath>
 </defs>
</svg>
